<svg xmlns="http://www.w3.org/2000/svg" viewBox="0 0 1018.91 531.4"><defs><style>.cls-1{fill:#fff;}</style></defs><title>Asset 3</title><g id="Layer_2" data-name="Layer 2"><g id="Layer_1-2" data-name="Layer 1"><g id="Layer_2-2" data-name="Layer 2-2"><g id="layer1"><path id="path5334" class="cls-1" d="M585.18,106.05a46.06,46.06,0,0,1-19.73-7.78,67.7,67.7,0,0,1-13.6-13.5,56,56,0,0,1-10.38-37,52.36,52.36,0,0,1,15.26-32.08,48.58,48.58,0,0,1,13.12-9.54A28,28,0,0,1,581,2.68c2.41-.36,5.26-.87,6.32-1.16a20.87,20.87,0,0,1,8.79-.44c22.26,2.14,40.21,15.23,47.26,34.35,4,10.73,3.93,23-.11,35.14-5.39,16.19-15.76,26.36-32.41,32-9.37,3.15-18.64,4.39-25.69,3.5Zm14.36-20.38a32.59,32.59,0,0,0,15.26-8.42,30.63,30.63,0,0,0,6.81-9.49,35.18,35.18,0,0,0,2.08-24.39,29,29,0,0,0-7.57-13.18c-5.6-5.76-12.61-8.79-21.69-9.58a20.2,20.2,0,0,0-8,.6,39.67,39.67,0,0,0-5.86,1.6,34,34,0,0,0-9.12,6.57,31.29,31.29,0,0,0-9.12,21.86,33.14,33.14,0,0,0,1.72,13.4c3.74,11.26,11.94,19.2,22.24,21.55a36.51,36.51,0,0,0,13.18-.48ZM480,105.55c-9.41-1.46-15.33-4-25.11-10.81-4.08-2.92-5.34-3.89-5.34-4.39s2-2.68,6.72-7.19l6.73-6.5,1.79,1.77c1.66,1.63,2.18,1.91,6.28,3.41,17.08,6.23,28,5.76,32.61-1.46a11,11,0,0,0,1.77-7.44c-.45-5.34-3.79-8.69-10.25-10.25-1.34-.33-5.09-1-8.3-1.46-10.69-1.57-20.1-5-25.27-9.14-6.5-5.24-10-17.48-7.66-26.44A31.6,31.6,0,0,1,466.78,8.2c4-2.82,6.63-3.94,13.62-5.77L486.87.74,492,.93c10.51.43,18.73,2.36,25.16,6a33.81,33.81,0,0,1,7.93,6.36l1.22,1.42-6.59,6.71c-3.63,3.69-6.74,6.76-6.88,6.82a7.06,7.06,0,0,1-2-1.6,10.45,10.45,0,0,0-4.9-2.92c-6.61-2.38-14.21-3.53-18.81-2.83a15.1,15.1,0,0,0-8.24,4,10,10,0,0,0-2.72,7c-.12,2.66-.09,2.79,1,4.39,2.16,3.22,5.39,4.51,15.51,6.18,13.56,2.22,22.52,6.34,29.28,13.41a21.8,21.8,0,0,1,6.64,17.48,32,32,0,0,1-9.64,21.38,41.26,41.26,0,0,1-22.84,10.89,68.9,68.9,0,0,1-16.11,0Zm221.32.45a52.17,52.17,0,0,1-40.86-30.47,54.41,54.41,0,0,1,.69-45.9,52.5,52.5,0,0,1,27-25.09,107.42,107.42,0,0,1,19-3.52,62.26,62.26,0,0,1,24.49,5c6.56,3,14.64,8.23,14.29,9.19-.26.73-13.4,14.64-13.82,14.64a42.36,42.36,0,0,1-5.23-2.59C718.54,22.72,715.65,21.9,708,22a30.84,30.84,0,0,0-13.62,2.69,33.75,33.75,0,0,0-14.13,12.25,27.32,27.32,0,0,0-3.81,16.37A36.67,36.67,0,0,0,686,76.82c6,6.39,13,9.11,22.52,8.7,7.09-.32,11-1.46,17.82-5.37q2.15-1.2,4.4-2.19l1.88-.8,5.7,5.75c4.2,4.24,6,6.24,6.6,7.53a4.76,4.76,0,0,1,.68,2,102.14,102.14,0,0,1-12.2,7.75,52.89,52.89,0,0,1-15.94,5.35A87.71,87.71,0,0,1,701.29,106Zm-556.19-.5-1.51-.12V70.85c.25-19,1.13-52.3,1.13-52.3V0h5.64l32.31,33.5c17.78,18,32.52,32.68,32.83,32.68s.45-2,.45-11.58c0-6.37.09-21.1-.17-32.73V1.13h20.3V106H228.4L204.59,82C184,61.2,174.9,51.7,172.43,48.54a45.64,45.64,0,0,0-7.31-6.29l-1.22-.63V106h-8.29s-9.55-.41-10.43-.48ZM257.52,51.05V0h19.94c10.72,1,38.25,1.13,38.25,1.13h18.5V20.3H279V42.86h12.49c7,.23,16.39.32,20.9,1.13h8.34V62H279V85.72h55.26V106H257.52Zm128.57,54.47-2.25-.12L385,62.94V20.3L367.2,21.43H350l.15-10.76c.09-5.16.22-9.46.32-9.54s20.32,0,45,0l44.79.2V20.07s-7.9.15-17.44.23H404.14l1.13,43v41.64h-8.81s-9.36.72-10.37.65Zm-376.6-.6a3.82,3.82,0,0,1-1.62-.42c-.94-.48-1.18-1.39-.74-2.83.07-.29.92-2.58,1.85-5.09s1.85-5,2-5.55c.59-1.87,1-2.47,1.93-2.85l.51-.21H65.87c48.2,0,52.47,0,52.86.11.83.21,1.08.45,1.63,1.5a38.43,38.43,0,0,1,1.8,4.87,33.84,33.84,0,0,0,1.51,4,17.94,17.94,0,0,1,1.51,4.52c0,.89-.79,1.51-2.13,1.8-.54.09-5.13.1-55.35.13H9.52Zm107.36-3.46a3.06,3.06,0,0,0,1.44-.46,1.6,1.6,0,0,0,.57-1c0-.1-.68-2-1.47-4.18s-1.58-4.4-1.7-4.7c-.38-1.31-.84-2-1.46-2.2a12,12,0,0,0-2.93-.18c-.79,0-22.17,0-47.51.09-44.24,0-46.08,0-46.26.16a5.67,5.67,0,0,0-1.12,1.58,34.17,34.17,0,0,0-1.79,4.66c-.41,1.25-.89,2.67-1.08,3.15-.53,1.46-.56,2-.15,2.47a2.77,2.77,0,0,0,1.83.65H116.88ZM36.46,86.83a3,3,0,0,1-1.05-.34c-.2-.13-.21-.15-.2-.35a16.68,16.68,0,0,1,2.35-4.72l.18-.21H51l.22-.13c1-.65,1.24-2.88,1-8.34V71.06H36.29c-14.75,0-16,0-16.65-.11a5.33,5.33,0,0,1-2.9-1.16A7.48,7.48,0,0,1,15,65.29c0-.59-.08-1.65,0-4.31V11.43a33.72,33.72,0,0,1,.26-5.94,4.42,4.42,0,0,1,1.26-2.91,5.7,5.7,0,0,1,3.36-1.34c.53,0,9.17-.08,46.93-.11h46.88a5.17,5.17,0,0,1,2.11.52,3.89,3.89,0,0,1,1.24.93,4.2,4.2,0,0,1,1.22,2c.1.38.1,2.07.16,28,0,15.15,0,28.18.09,28.94.19,5.24-.51,7.7-2.55,8.89a6.08,6.08,0,0,1-1.86.57,36.72,36.72,0,0,1-4.92,0c-1.35,0-29.1-.1-29.22,0s-.17.38-.2,4.28a23,23,0,0,0,.1,4.06A2.24,2.24,0,0,0,81.1,81a55,55,0,0,0,8.51.11c3.61,0,3.83,0,4.19.27A19.72,19.72,0,0,1,96,85.76c.17.52.17.57,0,.71a1,1,0,0,1-.41.31l-.29.15H36.46ZM68,75.64c8.09,0,7.86,0,8.43-.34a2,2,0,0,0,.88-2c-.15-.57-.75-.94-1.74-1.09H57.38l-.38.41a2.19,2.19,0,0,0-.71,1.63,1,1,0,0,0,.19.76,2.24,2.24,0,0,0,1.46.75h1.38c.53,0,4.39,0,8.64-.08ZM32,64V62.56l-1,.1a1.33,1.33,0,0,1-1,0c-.09-.08,0-.41.45-.6a4.12,4.12,0,0,1,1.47-.27c.09,0,.1.21,0,1.83v.67h5.21l-.08.88a6.46,6.46,0,0,1-.13-2.8,3,3,0,0,1,.7-1.59,1.72,1.72,0,0,1,1.58-.39c.72.21,1.19.85,1.47,2a6.09,6.09,0,0,1,0,2.62,1.82,1.82,0,0,1-.12.43h8.59s8.49,0,8.43-.19a.32.32,0,0,1,0-.27c0-.2.71-.48,1.38-.57s.7-.09,1.24.48v.55h4.51V65a3.65,3.65,0,0,1,.64-1.55A1.28,1.28,0,0,1,66.71,63,2.43,2.43,0,0,1,68,65.14v-.86H85.47c.22,1,.45,1,.68,1.13h-.07v-4.7l.35.08a1.38,1.38,0,0,1-.94,0c-.09-.08,0-.41.42-.58s1-.29,1.47-.44h-.17v4.51h1a5.61,5.61,0,0,0,.67,1.13h11.9V65c-.1-.35-.1-.35-.27-.28a2.42,2.42,0,0,1-1,.12c-.16,0-.2-.36,0-.52a5.56,5.56,0,0,1,1.55-.47c.43,0,.88.81.88.81v.75h12.35V62.94l-.42.1a1.35,1.35,0,0,1-.93,0,.35.35,0,0,1,.13-.46l.79-.22,1.56-.18V11.28h-1.13a2.33,2.33,0,0,0-1.27-.61.34.34,0,0,1,0-.28c0-.31.77-.24.77-.24h.5V5.64H95.82L95.7,6a2.2,2.2,0,0,1-.84,1.13,2.29,2.29,0,0,1-.63.19,1.49,1.49,0,0,1-1.69-1,3,3,0,0,1-.23-.56,18.12,18.12,0,0,0-2.55-.09H87.21v1.1h1.08c.23.94.47,1,.69,1a.44.44,0,0,1,0,.51,7.19,7.19,0,0,1-2.53.19c-.71-.08-.91-.17-.94-.41s.76-.19.76-.19h1V5.64h-20l.22.36a2.87,2.87,0,0,1,.69,1.46A5.17,5.17,0,0,1,68,10.57a1.86,1.86,0,0,1-2.17,1.15c-.84-.24-1.36-1.22-1.46-2.81a4,4,0,0,1,.83-3l.25.92H41V6.41c-.21,1.77-.77,2.63-1.91,2.8s-2.6-2.93-2.6-2.93V5.64H32V9h.81c.23.64.46.67.68.74a.41.41,0,0,1,0,.51,7.8,7.8,0,0,1-2.55.2c-.69-.09-.89-.18-.92-.43s0-.35.76.11h.09V5.64H19.54V65.42H30.82V64Zm40.39,1a2.11,2.11,0,0,1-1-1.22,5.11,5.11,0,0,1-.3-2.19,2.91,2.91,0,0,1,1.3-2.73c.23-.15.31-.16.79-.15a1.26,1.26,0,0,1,.8.22A3.79,3.79,0,0,1,75,61.86a3.52,3.52,0,0,1-.79,2.47,1.75,1.75,0,0,1-1.79.53Zm1-.88a2.68,2.68,0,0,0,.7-2,5.76,5.76,0,0,0-.75-2.56.48.48,0,0,0-.41-.13.43.43,0,0,0-.44.2,3.5,3.5,0,0,0-.55,2.16,3.18,3.18,0,0,0,.71,2.26.66.66,0,0,0,.78,0Zm20.5.61A2.24,2.24,0,0,1,92.56,63a7.55,7.55,0,0,1,0-2.51,3,3,0,0,1,.7-1.65,1.69,1.69,0,0,1,1.58-.38c.71.2,1.15.79,1.47,1.86a5.13,5.13,0,0,1-.19,3.17,1.85,1.85,0,0,1-2.21,1.16Zm.83-.82a2.2,2.2,0,0,0,.83-1.78,3.58,3.58,0,0,0-.23-1.86c-.19-.5-.66-1.06-.88-1.06s-.7.58-.86,1a4.38,4.38,0,0,0,.28,3.4.53.53,0,0,0,.83.25Zm-43.12.85a1.55,1.55,0,0,1-.82-.67,4.53,4.53,0,0,1-.57-2.72,2.74,2.74,0,0,1,1-2.57,1,1,0,0,1,.84-.27c1,0,1.59.64,1.93,2a5.4,5.4,0,0,1,0,2.4,2.49,2.49,0,0,1-1.14,1.71,1.74,1.74,0,0,1-1.27.07Zm1.07-1.55a4.14,4.14,0,0,0,.47-2.56,5,5,0,0,0-.5-1.65,1.23,1.23,0,0,0-.41-.13c-.41,0-.44,0-.75.63a4.08,4.08,0,0,0,0,3.48c.21.45.41.62.75.59s.28,0,.47-.37ZM45,62.51a2.19,2.19,0,0,1-1.08-1.16,5.22,5.22,0,0,1-.29-2.18,2.9,2.9,0,0,1,1.2-2.72c.23-.15.31-.16.79-.15a1.16,1.16,0,0,1,.81.22,3.79,3.79,0,0,1,1.15,3A3.49,3.49,0,0,1,46.76,62a1.76,1.76,0,0,1-1.82.48Zm.54-.88a2.56,2.56,0,0,0,.69-2,5.67,5.67,0,0,0-.71-2.51.46.46,0,0,0-.41-.15.4.4,0,0,0-.43.22A3.46,3.46,0,0,0,44,59.37a3.27,3.27,0,0,0,.71,2.27.66.66,0,0,0,.78,0Zm61.55.89a1.38,1.38,0,0,1-.81-.67,4.54,4.54,0,0,1-.53-2.8c0-1.46.31-2,1.06-2.56a1.15,1.15,0,0,1,.83-.28c1,0,1.58.65,1.94,2a5.66,5.66,0,0,1,0,2.39,2.58,2.58,0,0,1-1.15,1.72,1.78,1.78,0,0,1-1.3.15Zm1.08-1.12a4.06,4.06,0,0,0,.51-2.62,4.76,4.76,0,0,0-.45-1.66,1.62,1.62,0,0,0-.43-.12c-.39,0-.42,0-.73.63a4.1,4.1,0,0,0,0,3.49c.22.44.43.6.76.57s.28,0,.47-.37Zm-84,.8a1.42,1.42,0,0,1-.82-.66,4.59,4.59,0,0,1-.57-2.74c0-1.46.31-2,1.05-2.56a1.12,1.12,0,0,1,.84-.26c1,0,1.59.63,1.93,2a5.36,5.36,0,0,1,0,2.39A2.49,2.49,0,0,1,25.37,62a1.71,1.71,0,0,1-1.29.15Zm1-1.2a4.07,4.07,0,0,0,.47-2.54,4.88,4.88,0,0,0-.46-1.72,1.23,1.23,0,0,0-.41-.13c-.41,0-.44,0-.74.63a4.1,4.1,0,0,0,0,3.49c.2.44.41.6.74.58s.28,0,.47-.38Zm33.14,0a2.35,2.35,0,0,1-1-1.65,6.71,6.71,0,0,1,0-2.75A2.22,2.22,0,0,1,58,55.31a1.45,1.45,0,0,1,1.64-.4A3.09,3.09,0,0,1,61.05,58a3.16,3.16,0,0,1-1.38,3A1.66,1.66,0,0,1,58.29,61Zm1.13-.89a2,2,0,0,0,.61-.89A3.6,3.6,0,0,0,60.16,58,3,3,0,0,0,60,56.73a2.24,2.24,0,0,0-.77-1c-.35-.22-.46-.16-.76.44a4,4,0,0,0-.14,3.58c.3.64.57.75,1.07.38ZM100.83,62a1.59,1.59,0,0,1-.53-.62A4.06,4.06,0,0,1,99.62,59V57.2l-.84.18a7.28,7.28,0,0,1-5.09.45,11.24,11.24,0,0,1-4.1-2.62l-1.25-.54v.22s-.26,1.59-1.18,1.67-1.47-.56-1.72-1.79a5.57,5.57,0,0,1-.13-1.35,3.53,3.53,0,0,1,.78-2.65l.32-.32-.64-1.17c-.35-.66-.79-1.46-1-1.76-.28-.5-.54-1-.77-1.53a11.5,11.5,0,0,0-1.34-2.52c-.13-.13-.22-.18-.22-.12a5.18,5.18,0,0,1-1.32,2l-.7.35v4h.63a1.18,1.18,0,0,0,.61.16c.44.09.54.24.43.53l-.09.19a22.9,22.9,0,0,1-2.62,0c-.78,0-.79,0-.79-.41s.83.65.83.65h1V48A2.84,2.84,0,0,1,80,46.3l-.56.28a6.51,6.51,0,0,1-5,.53,6,6,0,0,1-2.13-1.3.42.42,0,0,0-.4-.17c-.37,0-.5-.09-.5-.36a.32.32,0,0,1,.1-.26c.09,0,0-.15-.26-.57a7.19,7.19,0,0,1-1-1.82v-.9H62.4v.63c-.19.46-.32.92-.51,1.34a6.34,6.34,0,0,1-1.13,1.63l-.41.44.16.25a4.51,4.51,0,0,1,.54,2.76c-.19,1.67-1,2.67-2.06,2.67-.85,0-1.38-.56-1.7-1.77a15.13,15.13,0,0,0-.53-1.47v-.84h-.27a7.2,7.2,0,0,1-2.27,0,7.84,7.84,0,0,1-2.87-1.58,4.44,4.44,0,0,0-.59-.46A2.47,2.47,0,0,1,49.88,44a1.54,1.54,0,0,0-.27-.58c-.11-.11-.11-.09-.25.36a12.09,12.09,0,0,1-1.48,2.62,36.26,36.26,0,0,0-2,3.47l-.4.78v1.26h1.28c.59,0,.81.3.51.6A3.52,3.52,0,0,1,46,53H45l-.31.52a13,13,0,0,1-3.41,3.76,6.28,6.28,0,0,1-3.93,1.17,8.41,8.41,0,0,1-3.56-.76,2.85,2.85,0,0,0-.51-.2.75.75,0,0,0-.18.28,1.82,1.82,0,0,1-1.66,1.12c-.86,0-1.4-.56-1.72-1.79a6.7,6.7,0,0,1,0-2.82,4.17,4.17,0,0,1,.28-.77.62.62,0,0,0,0-.62,15.24,15.24,0,0,1-.27-2.34A8.46,8.46,0,0,1,30,48.61a1.15,1.15,0,0,0-.07-.45,4.69,4.69,0,0,1-.39-2.09,3.47,3.47,0,0,1,.79-2.71,1.14,1.14,0,0,0,.45-.93,6.9,6.9,0,0,1,.23-1c.09-.27.24-.82.34-1.2l.2-.71h-.46s-.77-.28-1.11-.45a.42.42,0,0,1,0-.48,2.66,2.66,0,0,0,.7-.2h.12V33.84H31A1.14,1.14,0,0,1,30,34c-.09-.09,0-.4.45-.59A3.73,3.73,0,0,1,32,33.1a12.63,12.63,0,0,1,0,1.74v1.74s.14-.77.29-1.7a44.18,44.18,0,0,1,.85-4.42,5.28,5.28,0,0,0,.26-1.58c0-.5-.11-1.16-.12-.87a3.61,3.61,0,0,1-.64,1.15,1.62,1.62,0,0,1-2.27.21l-.15-.13a4,4,0,0,1-.64-2.6,4.55,4.55,0,0,1,.39-2.12,2.61,2.61,0,0,1,1-.95,1.68,1.68,0,0,1,1.49.23,3.53,3.53,0,0,1,1,1.94c0,.18.09.09.39-.71a13.29,13.29,0,0,1,3.92-6.13l.33-.22-.2-.13c-1-.7-1.37-3.48-.61-5.07a1.48,1.48,0,0,1,.87-.86,1.64,1.64,0,0,1,2.2.73,1.42,1.42,0,0,1,.08.18l.24.51c0,.1,0,.11.18,0a6.56,6.56,0,0,1,3.47-.51h1.19V9h.25a2.13,2.13,0,0,1-1,.12c-.16,0-.19-.35,0-.51a5.24,5.24,0,0,1,1.45-.42c.47,0,.44-.2.44,2.72v2.6H47c.51,0,2.18.15,2.93.27a6.7,6.7,0,0,1,2,.6l.36.19V11.28h-.47l-.57,1.13h-.53a5.24,5.24,0,0,1,0-1.37,6.46,6.46,0,0,1,.94-.31,2.31,2.31,0,0,1,1-.18,11.19,11.19,0,0,1,.19,3.11c0,1.72,0,1.78.15,2a.4.4,0,0,0,.28.19,2.42,2.42,0,0,1,.47.07c.39,0,.49.24.39.5a2.18,2.18,0,0,1-.35.54h-.19a9.52,9.52,0,0,1,.22,1.77c0,.26,0,.31.23.45a4.57,4.57,0,0,1,1.09,1.06l.16.08h3.8v-3l-.52.1a1.56,1.56,0,0,1-1,0c-.09-.09,0-.41.44-.59a2.39,2.39,0,0,0,1.46-1h.7V20.3h4.74l-.19-.14a5.85,5.85,0,0,1,.07-4.1,1.48,1.48,0,0,1,.85-.85,1.64,1.64,0,0,1,2.19.77h0V16a5.36,5.36,0,0,1,.12,4.16l-.19,1.24H70a10,10,0,0,1,2.35-.94,2.09,2.09,0,0,0,.6-.19h4.33l.45-.44.46-.45v-1c0-1.57.27-2.16,1-2.67a2.67,2.67,0,0,0,.56-.5,4.36,4.36,0,0,1,2.17-1.31,13.18,13.18,0,0,1,3.37-.41h1.9V12.8l-.67.09c-.42.11-.85.1-.93,0s0-.41.42-.59a1.38,1.38,0,0,1,1.46.1h.85v1.12h1l1.77.23a4.57,4.57,0,0,1,1.2.89c.21.22.35.34.34.27a4.58,4.58,0,0,1-.09-.9,5.05,5.05,0,0,1,.4-2.43,1.48,1.48,0,0,1,.83-.85,1.67,1.67,0,0,1,2.21.78h0a5.36,5.36,0,0,1,.48,2.23c0,1.79-.66,2.93-1.86,3.1a1.51,1.51,0,0,1-1-.25l.45-.13v.19c-.51.43,0,1.32,0,1.32v.19l.54.27a5.74,5.74,0,0,1,1,.62,15.38,15.38,0,0,1,3.8,6.54l.33,1V26.5a9.21,9.21,0,0,0,0,2.87c0,.29.23,1.27.38,2.21a18.52,18.52,0,0,0,.66,3.11.75.75,0,0,0,.16.35l.45,0h.51a13.11,13.11,0,0,1,.08,2.87V40.6H102a2.26,2.26,0,0,1,.52,0c.54,0,.73.33.47.64s-.18.13-.71.13a2.08,2.08,0,0,0-.61,0c0,.32.44,3.94.52,4.34a24.75,24.75,0,0,1,.43,3.21c0,.62.11,1.29.12,1.56s0,.36.14.39a.4.4,0,0,1,.17.49.27.27,0,0,1-.17.19c-.09,0-.1.14-.14.8a6.74,6.74,0,0,1-.52,2.43l-.25.64.24.22a4.38,4.38,0,0,1,1,2.52,4.69,4.69,0,0,1-.8,3.35,1.49,1.49,0,0,1-1.52.43Zm.21-2.3a2.71,2.71,0,0,0,.69-2c0-.84-.55-2.61-.8-2.61s-.16.09-.23.21-.37.42-.61.7l-.47.48V57a4.34,4.34,0,0,0,.19,1.86,2.13,2.13,0,0,0,.55.94.81.81,0,0,0,.74,0ZM32,57.35a2.4,2.4,0,0,0,.58-.76,7.4,7.4,0,0,0-.66-.72,3.88,3.88,0,0,1-.91-1.14c-.16-.29-.27-.45-.29-.41a3.19,3.19,0,0,0-.12.6,3.65,3.65,0,0,0,.4,2.27c.25.54.52.58,1,.2Zm55.52-1.9A2.19,2.19,0,0,0,88.29,54a1,1,0,0,0-.22-.71c-.22-.35-.5-.76-.79-1.24l-.52-.88-.2.42a4.06,4.06,0,0,0,0,3.44c.31.68.57.78,1.07.41Zm-28.1-5a2,2,0,0,0,.61-.89,3.6,3.6,0,0,0,.12-1.22A2.79,2.79,0,0,0,60,47a2.22,2.22,0,0,0-.29-.55l-.13-.16-.44.27-.68.35c-.26.1-.33.28-.44,1.08a3.72,3.72,0,0,0,.41,2.2C58.84,50.7,59,50.76,59.46,50.42Zm41.36-13.53c0-1,0-1-.13-1h-.16a6.48,6.48,0,0,0,.26,1.86,8.34,8.34,0,0,0,0-1ZM32,28.68a1.92,1.92,0,0,0,.62-.89,3.25,3.25,0,0,0,.11-1.2,3,3,0,0,0-.13-1.29,2.15,2.15,0,0,0-.76-1c-.35-.24-.47-.16-.76.42a4,4,0,0,0-.15,3.57C31.29,28.94,31.5,29.05,32,28.68Zm34.56-8.24c.45-.21.77-.85.86-1.8a3.76,3.76,0,0,0-.22-1.85c-.2-.5-.67-1-.89-1s-.71.55-.85,1c-.54,1.46,0,3.75.8,3.79ZM39,17.51a6.93,6.93,0,0,1,.84-2.33.45.45,0,0,0,.08-.48c-.19-.71-.74-1.47-1-1.47s-.7.57-.86,1a4.38,4.38,0,0,0,.35,3.38c.18.28.32.4.5.4s.13-.11.19-.46ZM94.61,16a2.26,2.26,0,0,0,.84-1.79,3.66,3.66,0,0,0-.24-1.85c-.19-.49-.66-1-.88-1s-.7.56-.86,1a4.38,4.38,0,0,0,.28,3.4A.64.64,0,0,0,94.61,16Zm-15,44.21a1.38,1.38,0,0,1-.81-.67,4.53,4.53,0,0,1-.57-2.72c0-1.47.31-2,1.06-2.56a1,1,0,0,1,.83-.28c1,0,1.58.64,1.93,2a5.4,5.4,0,0,1,0,2.4A2.62,2.62,0,0,1,80.92,60a1.69,1.69,0,0,1-1.3.17Zm1.08-1.52a4.07,4.07,0,0,0,.45-2.56,4.46,4.46,0,0,0-.45-1.64,1.48,1.48,0,0,0-.42-.14c-.4,0-.43,0-.74.63a4.17,4.17,0,0,0,0,3.49c.22.45.43.61.77.58s.27,0,.46-.36Zm-15,.94-.45-.1c-.54-.12-.6-.16-.6-.41s.11-.35.82.7h.26V54.14h0a1.27,1.27,0,0,1-.88.08c-.12,0-.14-.37,0-.49a14.12,14.12,0,0,0,1.8-.73h.27v5.64h.6c.7-.06.85-.06.77.34a.41.41,0,0,1,0,.22,9,9,0,0,1-2.43.25Zm47.91-.94a2.2,2.2,0,0,1-1.28-1.56,5.1,5.1,0,0,1,0-2.63,2.59,2.59,0,0,1,1.47-2c.66-.2.48-.11.48.27v.35l-.26.13c-.62.26-.85.83-.84,2a4.83,4.83,0,0,0,.53,2.27c.16.31.23.38.38.41s.19,0,.19.38,0,.35-.18.34h-.35ZM71.39,55.14a.37.37,0,0,1,0-.52h0c.23,0,.69.69.69.69h.47V49.63h0a1,1,0,0,1-1,.47c-.16,0-.19-.34,0-.51a5.8,5.8,0,0,1,1.57-.47c.48,0,.65,2.72.65,2.72v2.3h0a.59.59,0,0,0,.58.32c.59,0,.81.33.52.6s-.21.14-1.67.14a9.24,9.24,0,0,1-1.66-.08ZM51.23,55c-.74,0-.77,0-.77-.4s0-.35.85-.41h2.06V49.63H51.72l-.57,1.12h-.52a5.7,5.7,0,0,1,0-1.43,7,7,0,0,1,.89-.27,2.36,2.36,0,0,1,1-.18,5.43,5.43,0,0,1-.23,3.49v1.78h1.32c.42.08.54.23.42.51s-.11.19-.41.22a18.27,18.27,0,0,1-2.34,0Zm55.52-2.23c-.73,0-.76-.09-.76-.41s0-.35.83.7h.69V47.37h-.22l-.57,1.13h-.53c-.11-1-.11-1.25,0-1.4a6.09,6.09,0,0,1,.94-.31c.63-.17.87-.23,1-.17.25,1.13.6,3.45.6,3.45v1.81h-.18a3.21,3.21,0,0,1,.62,0c.44.09.54.22.42.51s-.12.19-.39.22a18.43,18.43,0,0,1-2.35,0Zm-83-.32c-.73,0-.76-.09-.76-.41s0-.35.85-.11H24V46.24h.28l-.57,1.13h-.53a.58.58,0,0,1,0-.62,6.22,6.22,0,0,1,.92-.31,2.34,2.34,0,0,1,1-.18,18.52,18.52,0,0,1,.1,3.49v1h.35c.2.8.41.8.61.83.44.09.56.22.44.51s-.11.19-.41.22a18.27,18.27,0,0,1-2.34,0Zm42-2.33L65.29,50c-.54-.12-.6-.16-.6-.41s.82.07.82.07h.26V44.75a1.87,1.87,0,0,1-.88,0c-.12,0-.14-.37,0-.49A2.85,2.85,0,0,1,66.64,44h.27v4.5h.6c.7.61.85.61.77,1a.34.34,0,0,1,0,.2,8.27,8.27,0,0,1-2.43.25Zm48-.92a2.31,2.31,0,0,1-1.29-1.58,5.18,5.18,0,0,1-.17-2.62,2.59,2.59,0,0,1,1.47-2c.66-.2.48-.12.48.28v.35l-.26.12c-.62.26-.85.83-.84,2a4.83,4.83,0,0,0,.53,2.27c.16.3.23.39.38.42s.19,0,.19.38,0,.34-.18.34h-.35ZM107,43.34c-1-.36-1.47-1.59-1.38-3.44,0-1.46.31-2,1.06-2.52a1,1,0,0,1,.83-.28c.95,0,1.6.65,1.93,2a5.34,5.34,0,0,1-.23,3.09,2.51,2.51,0,0,1-.91,1,1.8,1.8,0,0,1-1.33.1Zm1.08-1.12a4.14,4.14,0,0,0,.54-2.6A4.46,4.46,0,0,0,108.2,38a1.64,1.64,0,0,0-.43-.13c-.39,0-.42,0-.73.63A4.1,4.1,0,0,0,107,42c.22.45.43.61.76.58s.28,0,.47-.36Zm-84,.69c-1-.35-1.46-1.6-1.46-3.44,0-1.47.32-2,1.05-2.52a1.08,1.08,0,0,1,.84-.28c1,0,1.59.65,1.93,2a5.2,5.2,0,0,1-.24,3.07,2.41,2.41,0,0,1-.9,1A1.71,1.71,0,0,1,24,42.9Zm1.07-1a4.07,4.07,0,0,0,.47-2.54,5,5,0,0,0-.43-1.69,1.48,1.48,0,0,0-.41-.12c-.41,0-.44,0-.74.62a4.12,4.12,0,0,0,0,3.5c.2.44.41.6.74.57s.28,0,.47-.37Zm88.11-2.44c-.32,0-.41-.16-.41-.37s.11-.32.78-.75h.63V34.23l-.36.09c-.42.11-.85.1-.93,0a.35.35,0,0,1,.13-.47l.79-.22,1.5-.18v6h-.94a3.51,3.51,0,0,1-1.12,0Zm-6.6-5.86c-.73,0-.76,0-.76-.39s0-.35.83.62h.75V28.2h-.32l-.57,1.12h-.53c-.11-1-.11-1.22,0-1.37a8,8,0,0,1,.94-.31c.63-.18.88-.22,1-.18.28,1.17.66,3.58.66,3.58v1.67h-.18a1.46,1.46,0,0,0,.62.16c.44.09.54.23.42.51s-.12.19-.39.22a18.43,18.43,0,0,1-2.35,0Zm-82.64-.3c-1-.08-1.08-.09-1.08-.41s0-.35.85-.19h1.36V27.07h-1l-.53,1.13h-.53s-.12-.44,0-.59c.3-.11.61-.21.92-.29.63-.19.9-.24,1-.19a11.62,11.62,0,0,1,.25,3.48l-.09,1h.27s.41.89.61.92c.44.1.56.24.44.53s-.12.17-.41.2a13.35,13.35,0,0,1-2,0Zm76.37-1.47a2.12,2.12,0,0,1-1.07-1.15,5.44,5.44,0,0,1-.3-2.19,3,3,0,0,1,1.24-2.72c.24-.15.31-.16.78-.15s.57,0,.8.22a3.8,3.8,0,0,1,1.18,3,3.55,3.55,0,0,1-.8,2.46,1.75,1.75,0,0,1-1.74.43Zm1.45-.88a2.53,2.53,0,0,0,.69-2,6.22,6.22,0,0,0-.7-2.53.53.53,0,0,0-.41-.15.39.39,0,0,0-.44.22,3.46,3.46,0,0,0-.63,2.18,3.38,3.38,0,0,0,.7,2.27.65.65,0,0,0,.79,0Zm11.85-.57a2.24,2.24,0,0,1-1.29-1.56,5.13,5.13,0,0,1-.1-2.58,2.56,2.56,0,0,1,1.47-2c.66-.18.48-.1.48.28v.35L114,25c-.62.28-.85.83-.84,2a4.9,4.9,0,0,0,.53,2.28c.16.31.23.39.38.41s.19,0,.19.39,0,.35-.18.33h-.35ZM107,24.17a1.47,1.47,0,0,1-.81-.66,4.57,4.57,0,0,1-.5-2.72c0-1.47.31-2.05,1.06-2.56a1.1,1.1,0,0,1,.83-.27c1,0,1.58.63,1.94,2a5.66,5.66,0,0,1,0,2.39A2.61,2.61,0,0,1,108.37,24a1.78,1.78,0,0,1-1.3.14ZM108.08,23a4,4,0,0,0,.54-2.6,4.76,4.76,0,0,0-.45-1.66,1.62,1.62,0,0,0-.43-.12c-.39,0-.42,0-.73.63a4.1,4.1,0,0,0,0,3.49c.22.44.43.6.76.57s.28,0,.47-.37Zm-84,.81a1.49,1.49,0,0,1-.82-.66,4.59,4.59,0,0,1-.57-2.74c0-1.46.31-2.05,1-2.55a1.08,1.08,0,0,1,.84-.28c1,0,1.59.65,1.93,2a5.4,5.4,0,0,1,0,2.4,2.52,2.52,0,0,1-1.08,1.73,1.76,1.76,0,0,1-1.29.14Zm1.07-1.13a4.11,4.11,0,0,0,.47-2.55,4.79,4.79,0,0,0-.43-1.7,1.23,1.23,0,0,0-.41-.13c-.41,0-.44,0-.74.63a4.1,4.1,0,0,0,0,3.49c.2.44.41.6.74.58s.28,0,.47-.38Zm75.36-.47A2.15,2.15,0,0,1,99.44,21a5.39,5.39,0,0,1-.3-2.18,3,3,0,0,1,1.15-2.68c.24-.15.31-.17.78-.15a1.2,1.2,0,0,1,.8.22A3.76,3.76,0,0,1,103,19.18a3.63,3.63,0,0,1-.79,2.47,1.78,1.78,0,0,1-1.77.6Zm1.39-.88a2.66,2.66,0,0,0,.69-2,6.22,6.22,0,0,0-.7-2.53.51.51,0,0,0-.41-.13.4.4,0,0,0-.44.2,3.49,3.49,0,0,0-.63,2.19,3.25,3.25,0,0,0,.7,2.26.68.68,0,0,0,.79,0Zm11.28-1A.39.39,0,0,1,113,20c0-.22.78-.81.78-.81h.54V15.09l-.3.09a1.38,1.38,0,0,1-.94,0,.37.37,0,0,1,.14-.47l.79-.22,1.44-.19v6h-.89a3.94,3.94,0,0,1-1.37,0Zm-82.5,0c-.48-.27-.67-.38-.68-.6s.76-.53.76-.53h.06v-4.4l.2.16a1.41,1.41,0,0,1-.95,0c-.09-.09,0-.41.44-.58A3.78,3.78,0,0,0,32,13.53h0v5.64h.81a3.38,3.38,0,0,0,.69.26.41.41,0,0,1,0,.51,2.57,2.57,0,0,1-.91.16c-.62.09-1.25.09-1.87.2Zm40.77-3.38a.39.39,0,0,1,0-.53h0c.22,0,.69.57.69.57h.41V11.28h0a1,1,0,0,1-1,.53c-.16,0-.19-.33,0-.51a6.18,6.18,0,0,1,1.57-.47c.48-.07.59,2.74.59,2.74v2.22h.58c.59.39.81.71.51,1s-.2.13-1.66.13c-.55,0-1.66,0-1.66,0Zm35.3-2.43c-.73,0-.76-.09-.76-.41s0-.35.83.58h.69V9h-.22l-.57,1.13h-.53c-.11-1-.11-1.21,0-1.35a5.18,5.18,0,0,1,.94-.31c.63-.18.87-.22,1-.18.26,1.14.6,3.47.6,3.47v1.75h-.15a3.19,3.19,0,0,0,.62.08c.44.09.54.22.42.52s-.12.19-.39.22a18.43,18.43,0,0,1-2.35,0Zm-83-.32c-.73,0-.76-.09-.76-.41s0-.35.85-.23H24V7.9h.28L23.7,9h-.53s-.12-.3,0-.44a6.22,6.22,0,0,1,.92-.31,2.36,2.36,0,0,1,1-.18,9.32,9.32,0,0,1,.12,3.49v1.95h.33a.8.8,0,0,1,.62-.12c.44.09.56.23.44.51s-.12.19-.41.22a18.27,18.27,0,0,1-2.34,0Zm34.33-1.08c-.48-.09-.67-.19-.69-.4s.77-.28.77-.28H59V7.74l-.52.1a1.33,1.33,0,0,1-1,0c-.09-.08,0-.41.44-.58s1-.3,1.46-.49h.7v4.51h.24c.23,1,.46,1,.68,1.07a.45.45,0,0,1,0,.52,2.82,2.82,0,0,1-.91.17,7.32,7.32,0,0,1-1.87,0Zm41.4-.65a.37.37,0,0,1,0-.52l0,0h0c.22-.07.7.52.7.52h.52V6.77h-.11a.94.94,0,0,1-1,.58c-.16,0-.2-.34,0-.52a5.29,5.29,0,0,1,1.56-.46c.48,0,.71,2.72.71,2.72v2.19h-.07c.19.41.38.41.57.43.6,0,.82.32.53.6s-.21.13-1.67.13a9.3,9.3,0,0,1-1.67-.07ZM79.3,12.19c-.73,0-.76-.07-.76-.39s0-.35.83-.52h1V6.77h-.6L79.29,7.9h-.53a4.94,4.94,0,0,1,0-1.33c.31-.12.62-.22.94-.31.63-.17.87-.22,1-.17A3,3,0,0,1,79.29,9.6v1.68H81a1.61,1.61,0,0,0,.61.15c.43.09.54.24.43.51s-.12.19-.4.22a18.27,18.27,0,0,1-2.34,0ZM39.67,65.42A5.75,5.75,0,0,0,40,64a3.42,3.42,0,0,0-.71-2.6c-.38-.41-.5-.41-.88,0a4,4,0,0,0-.26,3.91c0,.09.13.11.73-1h.93v1.13Zm19.16,0h-.24c-.23,0-.39.1,0,.11s.31,0,.31-.08Zm8.08-.18a3.19,3.19,0,0,0-.29-1,.8.8,0,0,0-.82-.56.77.77,0,0,0-.77.5,5.43,5.43,0,0,0-.29,1.12,6.61,6.61,0,0,0,1.09,0,4.88,4.88,0,0,0,1.08,0Zm0-54.35c.45-.22.75-.86.83-1.79a3.73,3.73,0,0,0-.22-1.84c-.2-.5-.67-1.06-.89-1.06s-.7.58-.85,1A4.41,4.41,0,0,0,66,10.54c.27.39.52.48.87.29Zm-27.76-3c.54.16.79-.39.69-1.49V5.64H37.58v.55a9.59,9.59,0,0,0,.88,2.12c.16.16.28.16.61-.41ZM94.6,6.39a1.41,1.41,0,0,0,.64-.59l.09-.17H93.6l.13.26c.27.53.49.66.87.51Z" transform="translate(-6.92)"/></g></g><path class="cls-1" d="M13,275.35h92.08l20.58,107.54c4.33,25.61,6.5,51.21,10.83,77.84h2.17c4.33-26.63,8.66-53.26,15.16-77.84l24.92-107.54h79.07l26,107.54c6.5,25.61,10.83,51.21,16.25,77.84h2.17c4.33-26.63,6.5-52.23,10.83-77.84l20.58-107.54h85.58l-61.75,256H249.15l-19.5-89.11c-4.33-23.55-8.67-47.11-13-75.27h-2.17c-4.33,28.16-7.58,51.72-11.91,75.27L184.15,531.4H78Z" transform="translate(-6.92)"/><path class="cls-1" d="M458.21,199.56c0-25.61,21.66-44,52-44s52,18.43,52,44-21.66,44-52,44S458.21,225.16,458.21,199.56Zm5.41,75.79h93.16v256H463.62Z" transform="translate(-6.92)"/><path class="cls-1" d="M619.61,175h91V364.46h2.17l74.74-89.11H888.25l-96.4,106.52L893.67,531.4H792.93l-54.16-91.15L710.6,470V531.4h-91Z" transform="translate(-6.92)"/><path class="cls-1" d="M921.83,199.56c0-25.61,21.67-44,52-44s52,18.43,52,44-21.66,44-52,44S921.83,225.16,921.83,199.56Zm5.42,75.79h93.16v256H927.25Z" transform="translate(-6.92)"/></g></g></svg>