<?xml version="1.0" encoding="UTF-8" standalone="no"?>
<!-- Created with Inkscape (http://www.inkscape.org/) -->

<svg
   xmlns:dc="http://purl.org/dc/elements/1.1/"
   xmlns:cc="http://creativecommons.org/ns#"
   xmlns:rdf="http://www.w3.org/1999/02/22-rdf-syntax-ns#"
   xmlns:svg="http://www.w3.org/2000/svg"
   xmlns="http://www.w3.org/2000/svg"
   xmlns:sodipodi="http://sodipodi.sourceforge.net/DTD/sodipodi-0.dtd"
   xmlns:inkscape="http://www.inkscape.org/namespaces/inkscape"
   width="200mm"
   height="200mm"
   viewBox="0 0 195 200"
   version="1.1"
   id="svg5321"
   inkscape:version="0.92.3 (2405546, 2018-03-11)"
   sodipodi:docname="netsoc.svg">
  <defs
     id="defs5315" />
  <sodipodi:namedview
     id="base"
     pagecolor="#ffffff"
     bordercolor="#666666"
     borderopacity="1.0"
     inkscape:pageopacity="0.0"
     inkscape:pageshadow="2"
     inkscape:zoom="1.4142136"
     inkscape:cx="628.26268"
     inkscape:cy="792.7301"
     inkscape:document-units="mm"
     inkscape:current-layer="layer1"
     showgrid="false"
     inkscape:window-width="3200"
     inkscape:window-height="1675"
     inkscape:window-x="-13"
     inkscape:window-y="-13"
     inkscape:window-maximized="1" />
  <metadata
     id="metadata5318">
    <rdf:RDF>
      <cc:Work
         rdf:about="">
        <dc:format>image/svg+xml</dc:format>
        <dc:type
           rdf:resource="http://purl.org/dc/dcmitype/StillImage" />
        <dc:title></dc:title>
      </cc:Work>
    </rdf:RDF>
  </metadata>
  <g
     inkscape:label="Layer 1"
     inkscape:groupmode="layer"
     id="layer1">
    <path
       style="fill:#000000;stroke-width:0.08466666"
       d="m 132.47857,189.55615 c -1.72943,-0.2221 -3.43568,-0.89637 -5.13826,-2.03054 -1.02135,-0.68038 -2.80363,-2.44864 -3.55482,-3.52685 -2.05536,-2.95016 -3.02423,-6.40735 -2.70967,-9.66884 0.30513,-3.16368 1.69968,-6.09714 3.98496,-8.38242 1.06793,-1.06792 2.16742,-1.86708 3.42704,-2.49092 1.22191,-0.60517 1.5598,-0.71011 2.921,-0.90726 0.62865,-0.091 1.3716,-0.22761 1.651,-0.30347 0.73837,-0.20049 1.19913,-0.22352 2.31084,-0.11551 5.78471,0.56202 10.47309,3.97933 12.31991,8.97987 1.03543,2.80358 1.02445,6.0056 -0.0314,9.17724 -1.40851,4.23074 -4.11492,6.90253 -8.46538,8.35709 -2.45068,0.81937 -4.87289,1.14819 -6.71517,0.91161 z m 3.75102,-5.32414 c 1.63414,-0.42981 2.88688,-1.12096 3.9872,-2.1998 0.8264,-0.81027 1.29587,-1.46509 1.77818,-2.48025 0.93978,-1.97796 1.13949,-4.31646 0.54409,-6.37103 -0.42014,-1.44981 -0.97901,-2.42616 -1.977,-3.45375 -1.46111,-1.50446 -3.29207,-2.3135 -5.66493,-2.50311 -0.92409,-0.0738 -1.06042,-0.0638 -2.09027,0.15457 -0.60594,0.12846 -1.28883,0.31634 -1.51753,0.41752 -0.71263,0.31525 -1.76002,1.07018 -2.38429,1.71852 -1.55068,1.61049 -2.2907,3.38482 -2.38239,5.7123 -0.0573,1.45444 0.0513,2.29807 0.4506,3.5001 0.97716,2.94161 3.11678,5.01566 5.81067,5.63262 0.78079,0.17882 2.52622,0.11414 3.44567,-0.12769 z m -31.23677,5.19697 c -2.45985,-0.37297 -4.00564,-1.03827 -6.563236,-2.82477 -1.06744,-0.74562 -1.39409,-1.01641 -1.39467,-1.15619 -8.5e-4,-0.12701 0.53349,-0.69857 1.75608,-1.87955 l 1.756826,-1.69702 0.46972,0.46296 c 0.42982,0.42363 0.56914,0.49922 1.64043,0.88988 4.46127,1.6269 7.31243,1.50573 8.51964,-0.36206 0.40301,-0.62352 0.54092,-1.18908 0.47673,-1.95489 -0.11691,-1.39443 -0.99042,-2.27357 -2.67146,-2.68868 -0.35515,-0.0877 -1.3315,-0.25974 -2.16967,-0.38232 -2.79484,-0.4087 -5.25233,-1.29743 -6.60514,-2.38868 -1.696096,-1.36814 -2.621176,-4.56717 -1.998066,-6.90947 0.4692,-1.76371 1.63104,-3.34403 3.351696,-4.55894 1.04086,-0.73493 1.73491,-1.02857 3.55859,-1.50556 l 1.69287,-0.44278 1.3325,0.0525 c 2.74932,0.10843 4.89455,0.61587 6.5739,1.55502 0.71261,0.39851 1.66405,1.16149 2.073,1.66239 l 0.3274,0.40101 -1.7244,1.75166 c -0.94842,0.96343 -1.75687,1.76567 -1.79656,1.78278 -0.0397,0.0171 -0.28735,-0.18136 -0.55034,-0.44106 -0.40853,-0.40341 -0.5955,-0.51457 -1.28387,-0.76326 -1.72246,-0.62228 -3.70967,-0.92216 -4.9093,-0.74084 -0.82831,0.12521 -1.75141,0.57183 -2.15402,1.04219 -0.50692,0.59221 -0.67778,1.03597 -0.71068,1.84569 -0.0283,0.69709 -0.0203,0.73317 0.25356,1.14247 0.56248,0.84059 1.40676,1.1767 4.05053,1.61254 3.54254,0.58401 5.88657,1.65866 7.64246,3.50382 1.30295,1.36916 1.81799,2.72813 1.73165,4.56902 -0.0991,2.11335 -0.97713,4.06185 -2.51757,5.5871 -1.49162,1.4769 -3.62407,2.49369 -5.9676,2.84546 -1.05566,0.15847 -3.11065,0.15333 -4.191,-0.0105 z m 57.82733,0.0519 c -4.75746,-0.65777 -8.72923,-3.6188 -10.67871,-7.96118 -1.70763,-3.80368 -1.64225,-8.14716 0.18054,-11.99436 1.34211,-2.83267 4.07218,-5.37063 7.04957,-6.55347 0.73284,-0.29115 4.13964,-0.9204 4.98479,-0.92072 2.19449,-8.5e-4 4.63742,0.50025 6.40182,1.31313 1.71256,0.789 3.8242,2.14706 3.7335,2.40114 -0.0689,0.19301 -3.49855,3.82078 -3.61213,3.82078 -0.0684,0 -0.68192,-0.30427 -1.36347,-0.67617 -2.17464,-1.18659 -2.92757,-1.39916 -4.91791,-1.38839 -1.4591,0.008 -2.32081,0.17853 -3.55594,0.70412 -1.40499,0.59788 -2.97182,1.94478 -3.71235,3.19127 -0.78247,1.31709 -1.07478,2.55721 -1.00756,4.27451 0.092,2.35164 0.98462,4.57108 2.47618,6.15714 1.57019,1.66966 3.40929,2.37943 5.88434,2.27095 1.85216,-0.0812 2.87005,-0.38793 4.65666,-1.40339 0.34925,-0.1985 0.85783,-0.45473 1.13017,-0.56939 l 0.49516,-0.20847 1.50035,1.50741 c 1.09793,1.1031 1.56059,1.62982 1.72497,1.96381 0.12355,0.25102 0.20229,0.49257 0.17495,0.53679 -0.10634,0.17207 -2.40191,1.6305 -3.18509,2.02355 -1.48773,0.74666 -2.51092,1.0904 -4.16884,1.40052 -0.80247,0.1501 -3.40754,0.21873 -4.191,0.11042 z m -145.323096,-0.0608 -0.41611,-0.0323 0.0563,-9.02581 c 0.0309,-4.96421 0.0563,-11.11501 0.0563,-13.66846 v -4.64265 h 0.83918 0.83918 l 8.44391,8.55133 c 4.64415,4.70324 8.49562,8.55134 8.55882,8.55134 0.0946,0 0.11492,-0.53433 0.11498,-3.02684 4e-5,-1.66476 0.0253,-5.51286 0.0562,-8.55133 l 0.0562,-5.5245 h 2.6531 2.6531 v 13.716 13.716 h -1.00349 -1.00349 l -6.21709,-6.2865 c -5.38907,-5.44923 -7.77005,-7.93069 -8.40499,-8.75971 -0.25952,-0.33884 -1.58512,-1.46589 -1.93271,-1.64322 l -0.31889,-0.16267 v 8.42605 8.42605 l -2.30717,-0.0153 c -1.26894,-0.008 -2.49441,-0.0298 -2.72328,-0.0476 z m 29.49911,-13.66707 v -13.72987 l 5.09396,0.0562 c 2.80167,0.0309 7.29747,0.0562 9.99066,0.0562 h 4.89672 v 2.49766 2.49767 h -7.28134 -7.28133 v 2.94958 2.94957 l 3.31587,0.0561 c 1.82372,0.0308 4.28117,0.0561 5.461,0.0561 h 2.14513 v 2.49767 2.49767 h -5.461 -5.461 v 3.13266 3.13267 h 7.239 7.239 v 2.54 2.54 h -9.94833 -9.94834 z m 33.50715,13.66766 -0.40185,-0.0317 -0.0215,-11.10787 -0.0215,-11.10788 -4.51974,-0.0219 -4.51974,-0.0219 0.0387,-2.49618 c 0.0213,-1.37292 0.0582,-2.51571 0.0821,-2.53956 0.0239,-0.0238 5.30738,-0.0179 11.74117,0.0133 l 11.69781,0.0566 v 2.48366 c 0,1.36601 -0.01,2.49202 -0.0212,2.50224 -0.0116,0.0102 -2.05952,0.0388 -4.55084,0.0635 l -4.52966,0.0449 -0.0215,11.1125 -0.0215,11.1125 -2.26452,-0.0153 c -1.24549,-0.008 -2.44535,-0.0295 -2.66637,-0.047 z m -58.44429,-36.34225 c -0.94206,-0.0847 -1.52202,-0.23273 -2.09904,-0.53565 -1.21032,-0.6354 -1.51548,-1.79887 -0.95934,-3.65755 0.11147,-0.37253 1.19379,-3.32528 2.40516,-6.56166 1.21137,-3.23639 2.38206,-6.45584 2.60154,-7.15434 0.76001,-2.41872 1.28214,-3.19359 2.47358,-3.67092 l 0.66091,-0.26478 67.6202,-0.005 c 62.132606,-0.004 67.663716,0.006 68.156656,0.13263 1.06543,0.27306 1.40218,0.59121 2.10288,1.98677 0.56402,1.12335 1.16274,2.73895 2.32216,6.26617 0.72062,2.19232 1.33629,3.88157 1.88024,5.15896 1.31844,3.09616 1.97818,5.02559 1.97818,5.78524 0,1.1445 -1.01409,1.99848 -2.73442,2.30268 -0.71455,0.12636 -6.64139,0.1408 -71.391236,0.17381 -38.83659,0.0198 -71.45019,0.0515 -72.47466,0.0704 -1.02446,0.0189 -2.16873,0.007 -2.54281,-0.0268 z m 140.343326,-4.01187 c 0.65218,-0.0491 1.41783,-0.30022 1.86928,-0.61308 0.3567,-0.24719 0.74985,-0.94117 0.74985,-1.32358 0,-0.13223 -0.89033,-2.62982 -1.97853,-5.55021 -1.08819,-2.92039 -2.10077,-5.72889 -2.25018,-6.24112 -0.50459,-1.73003 -1.14094,-2.69534 -1.92192,-2.91547 -0.69583,-0.19613 -1.97082,-0.26882 -3.84003,-0.21891 -1.04775,0.028 -29.41487,0.0779 -63.038046,0.11096 -58.68086,0.0577 -61.1424,0.0662 -61.36576,0.21256 -0.33081,0.21675 -0.9955,1.15169 -1.48672,2.09119 -0.66875,1.27901 -1.31482,2.95453 -2.38324,6.18067 -0.54748,1.65311 -1.18995,3.53035 -1.42773,4.17163 -0.6991,1.88551 -0.74474,2.63937 -0.19903,3.28791 0.37108,0.441 1.25666,0.7529 2.43488,0.85756 0.47137,0.0419 134.276026,-0.008 134.837176,-0.0501 z M 55.674504,129.05671 c -0.4684,-0.0625 -1.1576,-0.2879 -1.45325,-0.4752 -0.26064,-0.16512 -0.28888,-0.21838 -0.25553,-0.48196 0.14701,-1.16222 2.33268,-5.58254 3.21308,-6.49817 l 0.26458,-0.27517 h 9.07254 9.07253 l 0.28568,-0.19251 c 1.27217,-0.85732 1.64169,-3.82755 1.4017,-11.26716 l -0.0733,-2.27333 -21.38967,0.0209 c -19.76335,0.0194 -21.45926,0.01 -22.30499,-0.12274 -1.86123,-0.29215 -3.1798,-0.81994 -3.92348,-1.57044 -1.08781,-1.0978 -1.74228,-3.04764 -2.07596,-6.184765 -0.085,-0.79922 -0.10349,-2.2295 -0.0755,-5.842 0.0487,-6.28875 0.0504,-59.46477 0.002,-65.61666 -0.0383,-4.87904 -10e-4,-5.84335 0.30517,-7.93131 0.29675,-2.02223 0.71206,-2.98429 1.68882,-3.91212 1.02732,-0.97585 2.38639,-1.52007 4.48618,-1.79643 0.69058,-0.0909 12.24108,-0.11988 62.65332,-0.15729 33.993666,-0.0252 62.158226,-0.0169 62.587926,0.0184 1.22187,0.10051 1.94372,0.28273 2.81706,0.71113 0.69789,0.34233 0.9168,0.50761 1.65418,1.24891 0.9281,0.93303 1.35491,1.61688 1.62195,2.59876 0.13844,0.50902 0.15108,2.75462 0.21016,37.32927 0.0346,20.23322 0.093,37.62587 0.12979,38.65033 0.25113,6.989705 -0.68969,10.266895 -3.40415,11.857655 -0.55404,0.3247 -1.49671,0.6133 -2.48495,0.76078 -1.05361,0.15723 -4.03387,0.17721 -6.57465,0.0441 -1.79527,-0.0941 -38.77161,-0.1385 -39.00495,-0.0469 -0.21943,0.0862 -0.23876,0.51022 -0.26044,5.71468 -0.018,4.31862 -0.005,4.8454 0.12947,5.41867 0.30138,1.28091 0.92669,2.17026 1.66589,2.36931 0.98822,0.2661 4.31922,0.31381 11.35916,0.16268 4.82735,-0.10364 5.11627,-0.0856 5.61264,0.35023 0.51494,0.45211 2.34777,4.15958 2.89289,5.85175 0.22251,0.69069 0.2282,0.74508 0.0986,0.94282 -0.0756,0.11542 -0.32044,0.29994 -0.54406,0.41004 l -0.40655,0.20017 -39.369986,0.009 c -21.65349,0.005 -39.48429,-0.007 -39.62399,-0.0252 z m 41.78299,-14.91705 c 10.732226,-0.0634 10.424246,-0.0513 11.188066,-0.44001 0.84328,-0.42912 1.42472,-1.76893 1.17313,-2.70327 -0.20516,-0.76191 -0.99194,-1.24763 -2.32022,-1.43237 -0.44186,-0.0615 -4.45475,-0.0911 -12.323396,-0.0911 h -11.66816 l -0.50783,0.54287 c -0.72928,0.7796 -0.99325,1.35907 -0.99325,2.18034 0,0.58606 0.0249,0.6844 0.25756,1.016 0.33106,0.47189 1.13468,0.8944 1.90144,0.99969 0.30268,0.0416 1.12183,0.0559 1.82033,0.0319 0.6985,-0.024 5.86105,-0.0708 11.47233,-0.10399 z M 48.943504,98.897575 v -1.85462 l -0.47286,0.12348 c -0.57517,0.15019 -1.12954,0.12217 -1.24549,-0.063 -0.18736,-0.29916 -0.006,-0.5419 0.58756,-0.78557 0.5989,-0.24595 1.76391,-0.45928 2.00434,-0.36702 0.1288,0.0494 0.14245,0.28207 0.14245,2.42799 v 2.373325 h 3.38291 3.38291 l -0.11455,-0.32468 c -0.31142,-0.882635 -0.38493,-2.469545 -0.17173,-3.707065 0.1545,-0.89685 0.58782,-1.87676 0.93952,-2.12467 0.79047,-0.55718 1.39642,-0.69983 2.10177,-0.49477 0.94234,0.27394 1.56144,1.12308 1.91715,2.62952 0.23536,0.99669 0.1993,2.67715 -0.0744,3.470535 -0.0962,0.27897 -0.16466,0.51756 -0.15201,0.5302 0.0127,0.0127 5.09258,-0.003 11.28874,-0.0343 10.53253,-0.0536 11.25996,-0.0666 11.17669,-0.19992 -0.049,-0.0784 -0.0655,-0.2364 -0.0367,-0.35104 0.0686,-0.273385 0.93941,-0.638335 1.83429,-0.768775 0.90997,-0.13263 0.93217,-0.11708 0.93217,0.652655 v 0.63766 h 3.20014 3.20014 l 0.0971,-0.56669 c 0.11464,-0.669325 0.57613,-1.647135 0.9645,-2.043605 0.58481,-0.59703 1.2918,-0.79259 2.05898,-0.56956 0.99998,0.29069 1.71529,1.32418 1.95182,2.820015 l 0.0569,0.35984 h 11.459886 c 7.5486,0 11.47776,-0.0289 11.51222,-0.0847 0.0292,-0.0473 0.42422,-0.0847 0.894,-0.0847 h 0.84167 v -2.997635 -2.99762 l -0.47286,0.12348 c -0.57516,0.15019 -1.12954,0.12217 -1.24548,-0.063 -0.18498,-0.29534 -0.005,-0.54212 0.56537,-0.77646 0.59671,-0.24506 1.49873,-0.43019 1.88247,-0.38636 l 0.24417,0.0279 0.0423,3.51366 0.0423,3.513675 0.80354,0.0246 c 0.44195,0.0135 0.8401,0.0612 0.88477,0.10584 0.0507,0.0507 3.02012,0.0812 7.89595,0.0812 h 7.81474 v -0.46341 c 0,-0.461865 -8.5e-4,-0.463275 -0.21579,-0.381535 -0.37749,0.14351 -1.17053,0.236205 -1.37051,0.16017 -0.21763,-0.0827 -0.26502,-0.46094 -0.0859,-0.68516 0.10579,-0.1324 1.3926,-0.51799 2.07726,-0.62244 0.5641,-0.0861 0.61091,-0.004 0.61091,1.07156 v 0.920975 h 8.46666 8.46667 v -1.600645 -1.60062 l -0.47285,0.12348 c -0.57517,0.1502 -1.12955,0.12217 -1.24549,-0.063 -0.11398,-0.18199 -0.0116,-0.55224 0.17245,-0.62388 0.0819,-0.0319 0.55783,-0.16359 1.05765,-0.29271 l 0.90877,-0.23478 0.0241,2.16722 c 0.0132,1.19196 0.0238,-15.66359 0.0236,-37.45679 0,-21.7932 -0.0109,-38.11117 -0.0236,-36.26216 l -0.0231,3.36185 -0.3059,0.0574 c -0.40838,0.0766 -1.4111,-0.0127 -1.70223,-0.15155 -0.15805,-0.0754 -0.24242,-0.1882 -0.26089,-0.34878 -0.0479,-0.4163 0.0883,-0.48108 1.01132,-0.48108 h 0.8363 v -2.87867 -2.87867 h -12.04761 -12.04747 l -0.15556,0.45763 c -0.20122,0.59202 -0.68549,1.22843 -1.11543,1.46588 -0.18706,0.10332 -0.55626,0.21325 -0.82045,0.2443 -0.99541,0.11699 -1.70113,-0.30848 -2.21482,-1.33529 -0.16544,-0.3307 -0.3008,-0.6533 -0.3008,-0.71689 0,-0.0958 -0.5746,-0.11563 -3.34644,-0.11563 h -3.34642 l 0.0233,1.37584 0.0233,1.37583 0.79975,0.0246 c 0.43986,0.0135 0.84944,0.0658 0.91017,0.1162 0.14735,0.1223 0.14059,0.53664 -0.0112,0.68848 -0.19696,0.19696 -2.45091,0.36335 -3.36808,0.24863 -0.92425,-0.11561 -1.20032,-0.23939 -1.23654,-0.55445 -0.0478,-0.41631 0.0883,-0.48109 1.01131,-0.48109 h 0.83631 v -1.397 -1.397 H 109.55418 96.504734 l 0.34344,0.37259 c 0.45995,0.49898 0.67066,0.93578 0.9138,1.89424 0.35488,1.39903 0.24921,3.12179 -0.25715,4.19215 -0.59349,1.25454 -1.74228,1.87743 -2.86214,1.55188 -1.13887,-0.33108 -1.80309,-1.6373 -1.89936,-3.73519 -0.0845,-1.84203 0.37011,-3.50229 1.10479,-4.0345 l 0.33293,-0.24117 h -16.34105 -16.34091 l -0.0497,0.99484 c -0.11697,2.33914 -0.84723,3.48406 -2.36401,3.70633 -1.63845,0.2401 -2.69116,-1.28716 -2.69116,-3.90428 v -0.79689 h -3.21854 -3.21854 l 0.0224,2.64584 0.0224,2.64583 0.79975,0.0246 c 0.43986,0.0135 0.84944,0.0658 0.91017,0.1162 0.14736,0.1223 0.14058,0.53664 -0.0112,0.68848 -0.19697,0.19696 -2.45091,0.36335 -3.36808,0.24863 -0.92425,-0.11561 -1.20032,-0.23939 -1.23654,-0.55445 -0.0479,-0.41631 0.0883,-0.48109 1.01132,-0.48109 h 0.8363 v -2.667 -2.667 h -7.66234 -7.66233 l 5.9e-4,39.0525 c 3.4e-4,21.47888 0.0249,39.30968 0.0546,39.624005 l 0.054,0.5715 h 7.60776 7.60776 v -1.854635 z m 54.427876,1.218385 c -0.52093,-0.166665 -1.17686,-0.875795 -1.42832,-1.544195 -0.32888,-0.87421 -0.44683,-1.73915 -0.3954,-2.89956 0.0836,-1.88561 0.55529,-2.94988 1.59973,-3.60921 0.31136,-0.19655 0.41086,-0.21443 1.04522,-0.18784 0.61802,0.0259 0.7446,0.0598 1.06816,0.28607 0.91514,0.63995 1.5402,2.2538 1.5402,3.97665 0,1.41919 -0.33619,2.47535 -1.04384,3.27929 -0.57932,0.658145 -1.58869,0.953785 -2.38575,0.698795 z m 1.28938,-1.164915 c 0.53371,-0.35967 0.92473,-1.46776 0.92473,-2.62054 0,-0.94092 -0.56236,-2.95207 -0.93828,-3.35558 -0.12338,-0.13244 -0.26974,-0.18138 -0.54238,-0.18138 -0.32249,0 -0.4015,0.0375 -0.57969,0.27516 -0.57359,0.76504 -0.84287,1.69148 -0.84287,2.89984 0,1.27334 0.41439,2.5979 0.94281,3.01355 0.2748,0.21615 0.6872,0.20379 1.03568,-0.031 z m 27.16068,0.82684 c -0.72742,-0.23282 -1.32866,-1.04241 -1.64515,-2.21524 -0.20985,-0.77761 -0.25183,-2.37844 -0.0873,-3.32977 0.16423,-0.94977 0.58855,-1.92259 0.94958,-2.17708 0.79047,-0.55718 1.39643,-0.69983 2.10176,-0.49477 0.9265,0.26933 1.50782,1.0365 1.87136,2.46964 0.35853,1.41336 0.25495,3.13073 -0.25366,4.20585 -0.59738,1.26275 -1.8132,1.900935 -2.93657,1.54137 z m 1.10549,-1.09697 c 0.59425,-0.30729 0.99429,-1.16253 1.11031,-2.37371 0.0891,-0.92963 -0.008,-1.70323 -0.30904,-2.45431 -0.26403,-0.65954 -0.88543,-1.39802 -1.17638,-1.39802 -0.27698,0 -0.92464,0.74817 -1.13549,1.31169 -0.50191,1.34148 -0.33616,3.40616 0.36227,4.51255 0.33816,0.53566 0.66699,0.65072 1.14833,0.4018 z m -57.238496,1.0283 c -0.47224,-0.17671 -0.79359,-0.44097 -1.08112,-0.88905 -0.57385,-0.89427 -0.81079,-2.03315 -0.75269,-3.61788 0.0697,-1.90225 0.40813,-2.72132 1.40447,-3.39951 0.4993,-0.33988 0.57227,-0.3639 1.10521,-0.3639 1.27066,0 2.10406,0.84986 2.56104,2.61162 0.23147,0.89239 0.22987,2.27249 -0.004,3.17319 -0.29345,1.13167 -0.79884,1.89466 -1.51215,2.28289 -0.51558,0.28061 -1.27405,0.36992 -1.72107,0.20264 z m 1.43026,-1.49701 c 0.54942,-0.91987 0.76786,-2.13134 0.61065,-3.38666 -0.10741,-0.85773 -0.43957,-2.04002 -0.61356,-2.18393 -0.0579,-0.0479 -0.30428,-0.12316 -0.5475,-0.16727 -0.53668,-0.0973 -0.57402,-0.0658 -0.98512,0.83118 -0.71696,1.56436 -0.7496,3.26536 -0.0889,4.62949 0.28529,0.58898 0.56167,0.80057 1.00329,0.76808 0.3163,-0.0233 0.36458,-0.0614 0.62109,-0.49089 z m -10.15397,-1.48292 c -0.52093,-0.16665 -1.17685,-0.87579 -1.42831,-1.54419 -0.32889,-0.87421 -0.44684,-1.73915 -0.39541,-2.89955 0.0836,-1.88561 0.55529,-2.94989 1.59973,-3.60921 0.31136,-0.19656 0.41086,-0.21444 1.04522,-0.18785 0.61802,0.0259 0.74461,0.0598 1.06816,0.28607 0.91514,0.63996 1.5402,2.25381 1.5402,3.97665 0,1.41919 -0.33619,2.47535 -1.04385,3.2793 -0.57931,0.65814 -1.58868,0.95377 -2.38574,0.69878 z m 1.28938,-1.16491 c 0.53371,-0.35966 0.92473,-1.46775 0.92473,-2.62054 0,-0.94092 -0.56235,-2.95207 -0.93828,-3.35558 -0.12338,-0.13243 -0.26974,-0.18138 -0.54238,-0.18138 -0.3225,0 -0.40151,0.0375 -0.57969,0.27517 -0.57359,0.76504 -0.84287,1.69148 -0.84287,2.89983 0,1.27334 0.4144,2.5979 0.9428,3.01355 0.2748,0.21615 0.68721,0.20379 1.03569,-0.031 z m 81.094316,1.18151 c -0.47223,-0.17671 -0.79359,-0.44097 -1.08112,-0.88905 -0.57386,-0.89427 -0.8108,-2.03315 -0.7527,-3.61789 0.0697,-1.90224 0.40814,-2.72131 1.40448,-3.39951 0.4993,-0.33987 0.57227,-0.36389 1.10521,-0.36389 1.27065,0 2.10406,0.84986 2.56104,2.61162 0.23147,0.89238 0.22987,2.27248 -0.004,3.17318 -0.29346,1.13168 -0.79885,1.89467 -1.51216,2.2829 -0.51558,0.28061 -1.27405,0.36991 -1.72106,0.20264 z m 1.43026,-1.49701 c 0.54942,-0.91987 0.76786,-2.13134 0.61065,-3.38667 -0.10742,-0.85772 -0.43957,-2.04001 -0.61356,-2.18392 -0.0579,-0.0479 -0.30428,-0.12317 -0.5475,-0.16727 -0.53668,-0.0973 -0.57402,-0.0658 -0.98512,0.83117 -0.71696,1.56436 -0.74961,3.26537 -0.0889,4.6295 0.28528,0.58898 0.56167,0.80057 1.00329,0.76808 0.3163,-0.0233 0.36458,-0.0614 0.62109,-0.49089 z m -111.496906,1.07367 c -0.47224,-0.1767 -0.79359,-0.44096 -1.08113,-0.88905 -0.57385,-0.89426 -0.81079,-2.03315 -0.75269,-3.61788 0.0697,-1.90225 0.40813,-2.72131 1.40448,-3.39951 0.4993,-0.33987 0.57226,-0.3639 1.10521,-0.3639 1.27065,0 2.10405,0.84986 2.56103,2.61162 0.23148,0.89239 0.22988,2.27249 -0.004,3.17319 -0.29345,1.13167 -0.79884,1.89466 -1.51215,2.28289 -0.51557,0.28061 -1.27404,0.36992 -1.72106,0.20264 z m 1.43026,-1.497 c 0.54941,-0.91987 0.76785,-2.13134 0.61065,-3.38667 -0.10742,-0.85772 -0.43958,-2.04002 -0.61357,-2.18393 -0.0579,-0.0479 -0.30427,-0.12316 -0.54749,-0.16726 -0.53669,-0.0973 -0.57403,-0.0658 -0.98513,0.83117 -0.71695,1.56436 -0.7496,3.26536 -0.0888,4.6295 0.28529,0.58897 0.56168,0.80056 1.0033,0.76808 0.31629,-0.0233 0.36458,-0.0614 0.62109,-0.49089 z m 43.98214,-0.0935 c -0.61553,-0.30468 -1.09001,-1.04875 -1.389,-2.17819 -0.24325,-0.91892 -0.24325,-2.75038 0,-3.6693 0.23067,-0.87137 0.42544,-1.2278 0.92756,-1.69747 0.70459,-0.65907 1.32799,-0.80764 2.17613,-0.51865 1.14902,0.39151 1.93232,2.04253 1.92181,4.05077 -0.0101,1.941 -0.71251,3.4668 -1.83751,3.9918 -0.55864,0.26069 -1.29739,0.26933 -1.79899,0.021 z m 1.49421,-1.18365 c 0.32753,-0.24215 0.63717,-0.6861 0.82175,-1.17819 0.10869,-0.28978 0.14432,-0.67492 0.1488,-1.60866 0.005,-1.07756 -0.017,-1.2851 -0.18145,-1.69739 -0.23911,-0.59949 -0.62457,-1.12333 -0.99508,-1.35232 -0.4827,-0.29832 -0.62923,-0.21637 -1.02127,0.57112 -0.80751,1.62206 -0.87464,3.2834 -0.19147,4.73903 0.41406,0.88224 0.76254,1.01154 1.41872,0.52641 z m 54.436326,0.64089 c -0.28336,-0.0907 -0.51316,-0.25659 -0.81952,-0.59181 -0.62124,-0.67973 -0.9149,-1.54017 -1.01728,-2.98068 l -0.0554,-0.77975 -0.38652,0.241 c -1.52848,0.95302 -4.46842,1.21227 -6.74965,0.59521 -1.52765,-0.41321 -3.81099,-1.86503 -5.44489,-3.46202 l -0.7517,-0.73471 -0.0974,0.30101 c -0.44852,1.38687 -1.36736,2.20335 -2.48166,2.20518 -1.12349,0.002 -1.835,-0.73915 -2.26176,-2.35552 -0.13024,-0.49329 -0.17231,-0.92399 -0.17508,-1.79232 -0.006,-1.76072 0.2847,-2.74869 1.03247,-3.51367 l 0.41382,-0.42333 -0.84896,-1.56633 c -0.46694,-0.86149 -1.05268,-1.9128 -1.30165,-2.33625 -0.24897,-0.42345 -0.70614,-1.33785 -1.01593,-2.032 -0.81541,-1.82707 -1.45471,-3.02585 -1.78374,-3.34475 -0.17983,-0.17431 -0.28805,-0.23297 -0.28856,-0.15645 -0.003,0.4151 -0.77889,1.58016 -1.74536,2.62013 l -0.35408,0.38101 -0.0294,2.726 -0.0294,2.726 0.34386,-0.0472 c 0.18913,-0.0259 0.56072,-0.002 0.82576,0.0529 0.57219,0.11879 0.72258,0.30269 0.56286,0.68828 -0.0561,0.13547 -0.10692,0.24912 -0.11292,0.25255 -0.10376,0.0594 -2.97709,0.11985 -3.48702,0.0734 -1.02512,-0.0934 -1.05354,-0.10804 -1.05354,-0.54111 0,-0.44287 0.0578,-0.46702 1.12183,-0.46868 l 0.74084,-0.001 v -2.29305 c 0,-1.26118 -0.0286,-2.28001 -0.0635,-2.26407 -0.0349,0.0159 -0.3683,0.18576 -0.74084,0.37737 -2.16347,1.11278 -4.48996,1.35821 -6.56166,0.6922 -1.04227,-0.33506 -2.26881,-1.06593 -2.87226,-1.71152 -0.15288,-0.16356 -0.28933,-0.21959 -0.53474,-0.21959 -0.48477,0 -0.657,-0.12175 -0.657,-0.46444 0,-0.17523 0.0526,-0.31858 0.13348,-0.36385 0.11228,-0.0628 0.0567,-0.18116 -0.35003,-0.74504 -0.63151,-0.87551 -1.01464,-1.68222 -1.14476,-2.41037 l -0.10514,-0.5883 h -5.278116 -5.2781 v 0.22061 c 0,0.34345 -0.24305,1.19829 -0.50489,1.77577 -0.32317,0.71273 -0.841,1.45739 -1.49712,2.15291 l -0.54786,0.58076 0.22204,0.33552 c 0.54682,0.8263 0.8595,2.42469 0.71763,3.66854 -0.25347,2.22245 -1.27393,3.53931 -2.74457,3.54173 -1.12333,0.002 -1.83408,-0.73822 -2.26221,-2.35553 -0.13193,-0.49839 -0.17316,-0.92655 -0.17735,-1.84203 l -0.005,-1.19271 -0.3466,0.0672 c -0.69744,0.13521 -2.27039,0.0845 -2.97889,-0.0961 -1.18652,-0.30239 -2.74274,-1.16844 -3.77775,-2.10233 -0.24638,-0.22231 -0.59556,-0.49366 -0.77597,-0.60299 -0.43266,-0.26223 -0.90713,-1.01106 -1.14209,-1.80251 -0.10393,-0.3501 -0.25903,-0.69995 -0.34467,-0.77745 -0.14884,-0.1347 -0.16391,-0.11364 -0.34155,0.47735 -0.24447,0.81332 -0.79244,1.84222 -1.85682,3.48641 -0.93387,1.4426 -1.80249,2.96771 -2.62676,4.61203 l -0.51443,1.02623 v 0.89948 0.89948 l 0.22598,-0.0567 c 0.12429,-0.0312 0.47216,-0.0304 0.77304,0.002 0.78472,0.084 1.07496,0.41784 0.69431,0.79849 -0.15662,0.15662 -0.28222,0.16933 -1.67307,0.16933 h -1.50373 l -0.40652,0.67836 c -1.12821,1.88262 -2.96806,3.90448 -4.45993,4.90114 -1.69629,1.13322 -3.05773,1.53887 -5.16475,1.53887 -1.65485,0 -3.22688,-0.33429 -4.64742,-0.98828 -0.34417,-0.15845 -0.6509,-0.28809 -0.68163,-0.28809 -0.0307,0 -0.13848,0.17003 -0.23944,0.37784 -0.44876,0.92368 -1.26702,1.48251 -2.17295,1.484 -1.12333,0.002 -1.83408,-0.73822 -2.26221,-2.35552 -0.24581,-0.92857 -0.24337,-2.74968 0.005,-3.6886 0.0973,-0.36774 0.26384,-0.82494 0.3702,-1.016 0.18069,-0.32459 0.18635,-0.37794 0.0863,-0.81305 -0.17953,-0.78087 -0.36383,-2.34003 -0.3633,-3.0735 5e-4,-0.74067 0.18584,-2.15619 0.33291,-2.54301 0.072,-0.18939 0.0558,-0.29918 -0.0851,-0.57529 -0.34582,-0.67787 -0.51545,-1.56706 -0.52281,-2.74053 -0.0112,-1.78507 0.27022,-2.74777 1.03945,-3.556 0.47686,-0.50104 0.4849,-0.51784 0.58636,-1.22567 0.0566,-0.39471 0.19459,-1.00796 0.30667,-1.36277 0.11209,-0.35482 0.31391,-1.06481 0.44849,-1.57777 l 0.24469,-0.93264 -0.68875,-0.054 c -0.72615,-0.0569 -1.29534,-0.18348 -1.47192,-0.32735 -0.13466,-0.10972 -0.13729,-0.50817 -0.004,-0.64123 0.0652,-0.0652 0.39887,-0.1016 0.93133,-0.1016 h 0.82974 v -2.99763 -2.99763 l -0.47286,0.12348 c -0.57517,0.1502 -1.12954,0.12218 -1.24549,-0.063 -0.18736,-0.29915 -0.006,-0.5419 0.58756,-0.78557 0.5989,-0.24595 1.76391,-0.45928 2.00434,-0.36701 0.12856,0.0493 0.14245,0.27496 0.14245,2.31509 0,1.24324 0.0187,2.24176 0.0415,2.21893 0.0228,-0.0228 0.19469,-1.02931 0.38191,-2.23661 0.44061,-2.84136 0.698,-4.18411 1.1068,-5.77405 0.27834,-1.08256 0.33081,-1.42011 0.32242,-2.07434 -0.009,-0.67079 -0.11973,-1.53562 -0.14936,-1.16238 -0.0213,0.26845 -0.51701,1.18384 -0.82767,1.52842 -0.8786,0.97457 -2.41977,1.02095 -3.14851,0.0947 -0.6822,-0.86704 -0.95997,-1.88794 -0.95997,-3.52817 0,-1.25651 0.15607,-2.11605 0.5103,-2.8104 0.21108,-0.41376 0.91592,-1.07699 1.32716,-1.24881 0.58683,-0.2452 1.40875,-0.12098 2.00399,0.30287 0.51369,0.36578 1.03157,1.39269 1.29464,2.56716 0.0492,0.21978 0.11032,0.10663 0.5029,-0.93133 1.51156,-3.99647 3.36566,-6.93776 5.10183,-8.0934 l 0.43828,-0.29174 -0.24803,-0.16584 c -1.36043,-0.90965 -1.80237,-4.58062 -0.80577,-6.69315 0.28826,-0.61105 0.46815,-0.7909 1.12196,-1.12173 1.12992,-0.57175 2.38184,-0.0666 2.98392,1.20399 0.1351,0.28511 0.26777,0.58638 0.29481,0.66949 0.0449,0.13804 0.0662,0.13998 0.24571,0.0223 0.72038,-0.472 2.19459,-0.68131 4.34996,-0.6176 l 1.55254,0.0459 v -2.99494 -2.99494 l -0.21579,0.0821 c -0.37748,0.14352 -1.17054,0.2362 -1.37051,0.16017 -0.21763,-0.0827 -0.26502,-0.46094 -0.0859,-0.68516 0.10579,-0.1324 1.39259,-0.51799 2.07726,-0.62244 0.64102,-0.0978 0.61091,-0.27502 0.61091,3.59569 v 3.4451 l 0.48683,-0.003 c 0.70053,-0.004 2.96306,0.18792 3.99184,0.33926 1.00404,0.14771 2.03016,0.45015 2.73916,0.80735 l 0.48683,0.24527 v -2.17009 -2.1701 l -0.1905,0.0524 c -0.10477,0.0288 -0.44675,0.0959 -0.75995,0.14895 -0.44896,0.0761 -0.59675,0.0739 -0.6985,-0.0106 -0.15576,-0.12927 -0.17025,-0.54043 -0.0232,-0.65894 0.0582,-0.0469 0.61509,-0.22957 1.23751,-0.40589 0.83527,-0.23662 1.16791,-0.29785 1.27,-0.23377 0.18342,0.11512 0.2425,1.06714 0.25538,4.11549 0.01,2.27962 0.0157,2.36074 0.1952,2.6035 0.11034,0.14924 0.26273,0.25057 0.37683,0.25057 0.10537,0 0.38435,0.0413 0.61996,0.0919 0.51153,0.10971 0.66194,0.30643 0.51167,0.66921 -0.0797,0.19235 -0.16816,0.24816 -0.46372,0.29248 l -0.36525,0.0548 0.11485,0.44067 c 0.13189,0.506 0.28869,1.78096 0.28971,2.35558 5.9e-4,0.35746 0.0279,0.40898 0.3182,0.60192 0.54367,0.36131 1.20134,1.00022 1.42838,1.38764 l 0.21754,0.3712 h 2.44728 2.44729 v -2.15097 -2.15096 l -0.47285,0.12348 c -0.57517,0.1502 -1.12955,0.12218 -1.24549,-0.063 -0.18497,-0.29533 -0.005,-0.54211 0.56537,-0.77646 0.59671,-0.24505 1.49873,-0.43018 1.88247,-0.38636 l 0.24417,0.0279 0.0423,2.667 0.0423,2.667 3.48695,0.0221 3.48695,0.0221 -0.21617,-0.53011 c -0.62821,-1.54052 -0.58634,-4.01004 0.0924,-5.44873 0.28827,-0.61105 0.46815,-0.7909 1.12197,-1.12173 1.08381,-0.54842 2.29412,-0.10258 2.93923,1.08271 0.79288,1.45679 0.86303,4.08323 0.14731,5.51551 l -0.25009,0.50048 h 3.024306 c 2.05252,0 3.05369,-0.0294 3.11574,-0.0914 0.0598,-0.0598 0.33672,-0.073 0.8001,-0.0383 0.38977,0.0292 1.83005,0.072 3.20064,0.0951 l 2.49196,0.042 0.61089,-0.60681 0.61089,-0.60681 0.0365,-1.32304 c 0.0586,-2.12024 0.36731,-2.92621 1.38106,-3.60523 0.28121,-0.18836 0.63428,-0.50365 0.78459,-0.70064 0.55747,-0.73061 1.64267,-1.38092 2.92409,-1.75226 1.10568,-0.32042 2.44815,-0.47859 4.52184,-0.53277 l 1.88383,-0.0492 v -0.52959 -0.52959 l -0.47285,0.12348 c -0.57517,0.1502 -1.12955,0.12218 -1.24549,-0.063 -0.18497,-0.29533 -0.005,-0.5421 0.56537,-0.77646 0.59671,-0.24505 1.49873,-0.43018 1.88247,-0.38636 l 0.24417,0.0279 0.0423,1.05833 0.0423,1.05833 2.11667,0.0423 c 1.16416,0.0233 2.19286,0.0774 2.286,0.12021 0.46975,0.21605 1.15331,0.72085 1.60241,1.18338 0.27596,0.28421 0.47247,0.44054 0.43669,0.34741 -0.0358,-0.0931 -0.085,-0.62654 -0.10938,-1.18534 -0.0565,-1.29496 0.1172,-2.37766 0.51745,-3.2253 0.28849,-0.61097 0.46858,-0.79099 1.12222,-1.12173 1.08381,-0.54842 2.29412,-0.10258 2.93924,1.08271 0.38142,0.70081 0.64594,1.91518 0.64423,2.95768 -0.004,2.36735 -0.87694,3.82144 -2.47275,4.11832 -0.39533,0.0736 -1.09225,-0.0883 -1.39049,-0.32287 l -0.226,-0.17778 0.0636,0.24949 c 0.18272,0.71693 0.29901,1.3926 0.30032,1.74506 l 10e-4,0.39492 0.6985,0.33977 c 0.38417,0.18687 0.95009,0.54832 1.2576,0.80322 1.79882,1.49108 3.61434,4.61715 4.91635,8.46526 l 0.42956,1.26953 -0.0543,0.93953 c -0.16578,2.86601 -0.16566,2.88656 0.0206,3.58156 0.0973,0.36298 0.35052,1.60193 0.56272,2.75321 0.37426,2.03044 0.62247,3.04083 0.96255,3.91809 0.0903,0.23283 0.19652,0.42209 0.23611,0.42058 0.0396,-0.002 0.34944,-0.0528 0.68854,-0.11395 0.48541,-0.0875 0.64299,-0.0892 0.74083,-0.008 0.10556,0.0876 0.12428,0.62577 0.12428,3.57329 v 3.47014 l 0.22599,-0.0567 c 0.12429,-0.0312 0.47216,-0.0304 0.77304,0.002 0.78471,0.084 1.07496,0.41783 0.69431,0.79849 -0.14783,0.14783 -0.28222,0.16933 -1.05834,0.16933 -0.48895,0 -0.889,0.0236 -0.889,0.0523 0,0.40392 0.63626,4.91696 0.76311,5.41284 0.26815,1.0482 0.49867,2.49158 0.64163,4.01749 0.072,0.76835 0.14985,1.59526 0.17301,1.83757 0.0329,0.34438 0.079,0.45228 0.21102,0.49418 0.38376,0.1218 0.38527,0.71755 0.002,0.83915 -0.13565,0.0431 -0.16393,0.17775 -0.21124,1.00618 -0.0673,1.17832 -0.26938,1.99224 -0.75165,3.02743 l -0.37106,0.79649 0.34303,0.25697 c 0.6542,0.4901 1.22363,1.7664 1.41049,3.16143 0.20993,1.56729 -0.28335,3.32897 -1.16983,4.17789 -0.54438,0.52131 -1.53421,0.75585 -2.23875,0.53046 z m 1.28938,-1.16491 c 0.53441,-0.36014 0.92473,-1.46774 0.92473,-2.62406 0,-1.09711 -0.72193,-3.44877 -1.05872,-3.44877 -0.0633,0 -0.20135,0.12382 -0.30679,0.27516 -0.10543,0.15135 -0.4731,0.56686 -0.81702,0.92337 l -0.62532,0.64819 -0.0778,0.61946 c -0.0914,0.72777 0.0164,1.77585 0.25337,2.46473 0.18653,0.54215 0.5319,1.11699 0.74597,1.24159 0.25101,0.14611 0.65973,0.10374 0.96157,-0.0997 z m -92.126346,-2.86709 c 0.25224,-0.1865 0.76442,-0.86867 0.76442,-1.01815 0,-0.0382 -0.39395,-0.46025 -0.87544,-0.93798 -0.69323,-0.68782 -0.94413,-1.00433 -1.20545,-1.52064 -0.19713,-0.3895 -0.35329,-0.61042 -0.38785,-0.54867 -0.0318,0.0568 -0.10028,0.41328 -0.15214,0.79206 -0.13899,1.01511 0.068,2.12028 0.55557,2.9659 0.37408,0.64883 0.69566,0.71494 1.30089,0.26748 z m 73.653976,-2.53555 c 0.51959,-0.38416 0.86811,-1.07507 0.96442,-1.91189 0.0474,-0.41152 0.0298,-0.46656 -0.29663,-0.93133 -0.19083,-0.27169 -0.66002,-1.01735 -1.04266,-1.65702 l -0.69569,-1.16305 -0.25367,0.57038 c -0.71568,1.60922 -0.74807,3.17393 -0.0945,4.56649 0.41407,0.88224 0.76255,1.01155 1.41873,0.52642 z m -37.253336,-6.77334 c 0.32753,-0.24215 0.63717,-0.68609 0.82175,-1.17819 0.10869,-0.28978 0.14432,-0.67492 0.1488,-1.60866 0.005,-1.09203 -0.0157,-1.28192 -0.18941,-1.71866 -0.10742,-0.27005 -0.28043,-0.58996 -0.38447,-0.71092 l -0.18917,-0.21992 -0.58636,0.34173 c -0.3225,0.18796 -0.72168,0.39799 -0.88706,0.46675 -0.3451,0.14346 -0.44398,0.38383 -0.59011,1.43451 -0.13411,0.96421 0.0823,2.09087 0.56116,2.92144 0.37293,0.64684 0.69601,0.71468 1.29487,0.27192 z m 54.872436,-17.89193 c 0,-1.26608 -0.005,-1.30309 -0.17066,-1.25978 -0.0939,0.0246 -0.18745,0.0718 -0.20797,0.10503 -0.0913,0.14773 0.23272,2.45916 0.34474,2.45916 0.0186,0 0.0339,-0.58698 0.0339,-1.30441 z M 49.781724,52.061735 c 0.32753,-0.24216 0.63717,-0.6861 0.82175,-1.17819 0.10869,-0.28979 0.14432,-0.67492 0.1488,-1.60867 0.005,-1.07756 -0.017,-1.2851 -0.18145,-1.69738 -0.23911,-0.59949 -0.62457,-1.12333 -0.99508,-1.35233 -0.4827,-0.29832 -0.62923,-0.21637 -1.02127,0.57112 -0.80751,1.62207 -0.87464,3.2834 -0.19147,4.73903 0.41406,0.88224 0.76254,1.01155 1.41872,0.52642 z m 45.84094,-10.94568 c 0.61723,-0.2579 1.04104,-1.12729 1.16125,-2.38218 0.0891,-0.92963 -0.008,-1.70323 -0.30903,-2.45432 -0.26404,-0.65954 -0.88544,-1.39801 -1.17639,-1.39801 -0.27699,0 -0.92464,0.74816 -1.13549,1.31169 -0.7005,1.87225 -0.0373,4.97796 1.07471,5.03294 0.0597,0.003 0.23293,-0.0466 0.38495,-0.11012 z m -36.60178,-3.88501 c 0.17906,-1.07746 0.63996,-2.36631 1.12522,-3.14654 0.17646,-0.28372 0.19418,-0.3745 0.12326,-0.63136 -0.25754,-0.93273 -0.98048,-1.95827 -1.38047,-1.95827 -0.27394,0 -0.92307,0.75181 -1.13255,1.31169 -0.50191,1.34149 -0.33616,3.40616 0.36228,4.51254 0.22909,0.36292 0.42579,0.51891 0.65973,0.5232 0.10908,0.002 0.16333,-0.13474 0.24253,-0.61126 z m 73.906046,-2.05013 c 0.59425,-0.30729 0.99429,-1.16253 1.11031,-2.37371 0.0891,-0.92963 -0.008,-1.70323 -0.30904,-2.45431 -0.26403,-0.65954 -0.88543,-1.39802 -1.17638,-1.39802 -0.27698,0 -0.92464,0.74817 -1.13549,1.31169 -0.50191,1.34149 -0.33616,3.40616 0.36227,4.51254 0.33816,0.53567 0.66699,0.65073 1.14833,0.40181 z m -19.98517,58.60163 c -0.47223,-0.1767 -0.79359,-0.44096 -1.08112,-0.88905 -0.57386,-0.89426 -0.8108,-2.03315 -0.7527,-3.61788 0.0697,-1.90224 0.40814,-2.72131 1.40448,-3.39951 0.4993,-0.33987 0.57227,-0.3639 1.10521,-0.3639 1.27065,0 2.10406,0.84986 2.56104,2.61162 0.23147,0.89239 0.22987,2.27249 -0.004,3.17319 -0.29345,1.13167 -0.79885,1.89466 -1.51215,2.28289 -0.51558,0.28061 -1.27405,0.36992 -1.72107,0.20264 z m 1.43026,-1.497 c 0.54942,-0.91987 0.76786,-2.13134 0.61065,-3.38667 -0.10742,-0.85772 -0.43957,-2.04002 -0.61356,-2.18393 -0.0579,-0.0479 -0.30428,-0.12316 -0.5475,-0.16726 -0.53669,-0.0973 -0.57402,-0.0658 -0.98512,0.83117 -0.71696,1.56436 -0.74961,3.26536 -0.0889,4.6295 0.28528,0.58897 0.56167,0.80056 1.00329,0.76808 0.3163,-0.0233 0.36458,-0.0614 0.62109,-0.49089 z m -19.835526,0.72816 c -0.0466,-0.0175 -0.31327,-0.0805 -0.59267,-0.13994 -0.72555,-0.1545 -0.80433,-0.20796 -0.80433,-0.54589 0,-0.39447 0.16744,-0.46567 1.09511,-0.46567 h 0.76756 v -2.99455 -2.99455 l -0.48684,0.11456 c -0.52569,0.12371 -0.94433,0.14752 -1.15724,0.0658 -0.16678,-0.064 -0.17744,-0.48566 -0.0164,-0.64676 0.15162,-0.15161 1.83956,-0.5999 2.28925,-0.60798 l 0.34484,-0.006 0.0221,3.53483 0.0221,3.53484 h 0.79736 c 0.92413,0 1.11544,0.0999 1.02805,0.53685 -0.0281,0.14032 -0.0642,0.26827 -0.0802,0.28433 -0.17002,0.17002 -2.90907,0.45024 -3.22871,0.33031 z m 64.188636,-1.23875 c -0.71526,-0.21428 -1.33178,-0.96233 -1.71507,-2.08094 -0.32744,-0.95563 -0.38107,-2.41192 -0.12618,-3.42631 0.36029,-1.43381 1.06323,-2.39495 1.90695,-2.6074 0.63058,-0.15879 0.64265,-0.1519 0.64265,0.36628 v 0.4617 l -0.36262,0.16041 c -0.81502,0.36052 -1.12461,1.10984 -1.1089,2.68385 0.0113,1.13302 0.22939,2.05452 0.71284,3.01223 0.2069,0.40987 0.30382,0.51629 0.50722,0.55697 0.24141,0.0483 0.25146,0.0685 0.25146,0.50538 0,0.44177 -0.007,0.45487 -0.23283,0.4478 -0.12806,-0.004 -0.34204,-0.04 -0.47552,-0.08 z m -56.63214,-4.66086 c -0.21099,-0.12289 -0.20033,-0.63668 0.0156,-0.75224 0.0901,-0.0482 0.50917,-0.0876 0.93133,-0.0876 h 0.76757 v -3.00357 -3.00357 l -0.21579,0.082 c -0.37749,0.14352 -1.17054,0.23621 -1.37051,0.16018 -0.21763,-0.0827 -0.26502,-0.46095 -0.0859,-0.68517 0.10579,-0.1324 1.3926,-0.51798 2.07726,-0.62244 0.64127,-0.0978 0.61091,-0.27779 0.61091,3.62075 v 3.47014 l 0.22598,-0.0567 c 0.12429,-0.0312 0.47216,-0.0303 0.77304,0.002 0.78472,0.084 1.07496,0.41784 0.69431,0.7985 -0.16017,0.16017 -0.28037,0.16919 -2.2225,0.16676 -1.23641,-0.002 -2.11211,-0.0369 -2.20133,-0.0889 z m -26.820646,-0.25193 c -0.96713,-0.086 -1.01351,-0.11078 -1.01351,-0.54145 0,-0.44287 0.0578,-0.46702 1.12183,-0.46868 l 0.74084,-0.001 v -2.97321 -2.97321 l -0.1905,0.0524 c -0.10478,0.0288 -0.44676,0.0958 -0.75995,0.14895 -0.44896,0.0761 -0.59676,0.0739 -0.6985,-0.0106 -0.15576,-0.12927 -0.17025,-0.54043 -0.0232,-0.65894 0.0582,-0.0469 0.61509,-0.22957 1.23751,-0.40589 0.83611,-0.23686 1.1678,-0.29787 1.27,-0.23362 0.19786,0.12439 0.27823,1.62169 0.24773,4.61541 l -0.0248,2.42967 0.34386,-0.0471 c 0.18913,-0.0259 0.56072,-0.002 0.82577,0.0529 0.56975,0.11828 0.72246,0.30296 0.56496,0.6832 -0.0873,0.21072 -0.15515,0.24684 -0.53626,0.28543 -0.78219,0.0792 -2.4538,0.1039 -3.10581,0.0459 z m 73.659986,-2.96333 c -0.96713,-0.086 -1.01351,-0.11079 -1.01351,-0.54146 0,-0.44287 0.0578,-0.46702 1.12183,-0.46868 l 0.74083,-0.001 v -2.97321 -2.97321 l -0.1905,0.0524 c -0.10477,0.0288 -0.44675,0.0959 -0.75995,0.14894 -0.44896,0.0761 -0.59675,0.0739 -0.6985,-0.0106 -0.15576,-0.12928 -0.17024,-0.54043 -0.0232,-0.65894 0.0582,-0.0469 0.61508,-0.22957 1.23751,-0.40589 0.83611,-0.23686 1.1678,-0.29788 1.27,-0.23363 0.19786,0.1244 0.27822,1.62169 0.24774,4.61542 l -0.0247,2.42966 0.34385,-0.0472 c 0.18913,-0.0259 0.56073,-0.002 0.82577,0.0529 0.56975,0.11827 0.72247,0.30295 0.56496,0.6832 -0.0873,0.21072 -0.15514,0.24684 -0.53625,0.28542 -0.7822,0.0792 -2.45381,0.10391 -3.10582,0.0459 z M 38.865684,83.475505 c -0.96714,-0.086 -1.01352,-0.11079 -1.01352,-0.54146 0,-0.44287 0.0578,-0.46702 1.12184,-0.46868 l 0.74083,-0.001 v -2.9732 -2.97321 l -0.1905,0.0524 c -0.10477,0.0288 -0.44675,0.0959 -0.75995,0.14894 -0.44896,0.0761 -0.59675,0.0739 -0.6985,-0.0106 -0.15576,-0.12927 -0.17025,-0.54043 -0.0232,-0.65894 0.0582,-0.0469 0.61509,-0.22956 1.23751,-0.40589 0.83612,-0.23686 1.16781,-0.29787 1.27,-0.23362 0.19786,0.1244 0.27823,1.62169 0.24774,4.61542 l -0.0247,2.42966 0.34386,-0.0471 c 0.18912,-0.0259 0.56072,-0.002 0.82576,0.0529 0.56975,0.11828 0.72247,0.30296 0.56497,0.68321 -0.0873,0.21071 -0.15515,0.24683 -0.53626,0.28542 -0.78219,0.0792 -2.45381,0.10391 -3.10582,0.0459 z m 55.67081,-3.1618 c -0.0466,-0.0175 -0.31327,-0.0805 -0.59267,-0.13994 -0.72555,-0.1545 -0.80433,-0.20796 -0.80433,-0.54589 0,-0.39447 0.16744,-0.46567 1.09511,-0.46567 h 0.76756 v -2.99455 -2.99455 l -0.48684,0.11456 c -0.52569,0.12371 -0.94433,0.14752 -1.15724,0.0658 -0.16678,-0.064 -0.17744,-0.48566 -0.0164,-0.64676 0.15162,-0.15161 1.83956,-0.5999 2.28925,-0.60798 l 0.34484,-0.006 0.0221,3.53483 0.0221,3.53484 h 0.79736 c 0.92413,0 1.11544,0.0999 1.02805,0.53685 -0.0281,0.14032 -0.0642,0.26827 -0.0802,0.28433 -0.17002,0.17002 -2.90907,0.45023 -3.22871,0.33031 z m 64.188636,-1.23875 c -0.71526,-0.21427 -1.33178,-0.96233 -1.71507,-2.08094 -0.32744,-0.95563 -0.38107,-2.41192 -0.12618,-3.42631 0.36029,-1.43381 1.06323,-2.39495 1.90695,-2.6074 0.63058,-0.15879 0.64265,-0.1519 0.64265,0.36628 v 0.4617 l -0.36262,0.16041 c -0.81502,0.36052 -1.12461,1.10984 -1.1089,2.68385 0.0113,1.13302 0.22939,2.05452 0.71284,3.01223 0.2069,0.40987 0.30382,0.51629 0.50722,0.55698 0.24141,0.0483 0.25146,0.0685 0.25146,0.50537 0,0.44177 -0.007,0.45487 -0.23283,0.44781 -0.12806,-0.004 -0.34204,-0.04 -0.47552,-0.08 z m -9.37671,-7.72907 c -1.26591,-0.47369 -1.92791,-2.11986 -1.83339,-4.55901 0.0717,-1.84956 0.4186,-2.67666 1.40405,-3.34744 0.4993,-0.33987 0.57227,-0.36389 1.10521,-0.36389 1.27121,0 2.10796,0.85383 2.55936,2.61162 0.31651,1.23253 0.17223,3.13998 -0.30963,4.09328 -0.29409,0.58183 -0.77879,1.13107 -1.20088,1.36081 -0.51928,0.28262 -1.27627,0.37244 -1.72472,0.20463 z m 1.43026,-1.49701 c 0.54942,-0.91987 0.76786,-2.13134 0.61065,-3.38667 -0.10742,-0.85772 -0.43957,-2.04002 -0.61356,-2.18392 -0.0579,-0.0479 -0.30428,-0.12316 -0.5475,-0.16727 -0.53668,-0.0973 -0.57402,-0.0658 -0.98512,0.83117 -0.71696,1.56436 -0.74961,3.26537 -0.0889,4.6295 0.28528,0.58897 0.56167,0.80056 1.00329,0.76808 0.3163,-0.0233 0.36458,-0.0614 0.62109,-0.49089 z m -111.496906,1.07368 c -1.26591,-0.4737 -1.92791,-2.11987 -1.83339,-4.55901 0.0717,-1.84956 0.4186,-2.67666 1.40405,-3.34744 0.4993,-0.33987 0.57226,-0.3639 1.10521,-0.3639 1.27121,0 2.10796,0.85384 2.55936,2.61162 0.31651,1.23253 0.17222,3.13999 -0.30963,4.09328 -0.29409,0.58184 -0.77879,1.13108 -1.20088,1.36081 -0.51928,0.28263 -1.27627,0.37244 -1.72472,0.20464 z m 1.43026,-1.49701 c 0.54941,-0.91987 0.76785,-2.13134 0.61065,-3.38667 -0.10742,-0.85772 -0.43958,-2.04002 -0.61357,-2.18393 -0.0579,-0.0479 -0.30427,-0.12316 -0.54749,-0.16726 -0.53669,-0.0973 -0.57403,-0.0658 -0.98513,0.83117 -0.71695,1.56436 -0.7496,3.26537 -0.0888,4.62949 0.28529,0.58898 0.56168,0.80057 1.0033,0.76809 0.31629,-0.0233 0.36458,-0.0614 0.62109,-0.49089 z m 116.992416,-3.14287 c -0.43002,-0.10084 -0.55697,-0.2128 -0.55697,-0.49123 0,-0.37442 0.13331,-0.4299 1.03294,-0.4299 h 0.82973 v -2.99763 -2.99763 l -0.47285,0.12348 c -0.57517,0.1502 -1.12955,0.12218 -1.24549,-0.063 -0.11398,-0.18199 -0.0116,-0.55224 0.17245,-0.62388 0.0819,-0.0319 0.55847,-0.16375 1.05906,-0.29308 l 0.91016,-0.23513 v 3.9992 3.9992 l -0.1905,0.0511 c -0.2735,0.0733 -1.14976,0.0497 -1.53853,-0.0415 z m -8.77212,-7.78384 c -0.96713,-0.086 -1.01351,-0.11079 -1.01351,-0.54146 0,-0.44287 0.0578,-0.46702 1.12183,-0.46868 l 0.74083,-10e-4 v -2.97321 -2.97321 l -0.1905,0.0524 c -0.10477,0.0288 -0.44675,0.0959 -0.75995,0.14894 -0.44896,0.0761 -0.59675,0.0739 -0.6985,-0.0106 -0.15576,-0.12928 -0.17024,-0.54043 -0.0232,-0.65894 0.0582,-0.0469 0.61508,-0.22957 1.23751,-0.40589 0.83611,-0.23686 1.1678,-0.29788 1.27,-0.23363 0.19786,0.1244 0.27822,1.62169 0.24774,4.61542 l -0.0247,2.42966 0.34385,-0.0472 c 0.18913,-0.0259 0.56073,-0.002 0.82577,0.0529 0.56975,0.11827 0.72247,0.30295 0.56496,0.6832 -0.0873,0.21072 -0.15514,0.24684 -0.53625,0.28542 -0.7822,0.0792 -2.45381,0.10391 -3.10582,0.0459 z M 38.865684,58.075505 c -0.96714,-0.086 -1.01352,-0.11079 -1.01352,-0.54146 0,-0.44287 0.0578,-0.46702 1.12184,-0.46868 l 0.74083,-10e-4 v -2.9732 -2.97321 l -0.1905,0.0524 c -0.10477,0.0288 -0.44675,0.0959 -0.75995,0.14894 -0.44896,0.0761 -0.59675,0.0739 -0.6985,-0.0106 -0.15576,-0.12927 -0.17025,-0.54043 -0.0232,-0.65894 0.0582,-0.0469 0.61509,-0.22956 1.23751,-0.40589 0.83612,-0.23686 1.16781,-0.29787 1.27,-0.23362 0.19786,0.1244 0.27823,1.62169 0.24774,4.61542 l -0.0247,2.42966 0.34386,-0.0471 c 0.18912,-0.0259 0.56072,-0.002 0.82576,0.0529 0.56975,0.11828 0.72247,0.30296 0.56497,0.68321 -0.0873,0.21071 -0.15515,0.24683 -0.53626,0.28542 -0.78219,0.0792 -2.45381,0.10391 -3.10582,0.0459 z m 101.759026,-1.98622 c -0.52093,-0.16665 -1.17686,-0.87579 -1.42832,-1.54419 -0.32889,-0.87421 -0.44684,-1.73915 -0.3954,-2.89955 0.0836,-1.88562 0.55529,-2.94989 1.59972,-3.60921 0.31137,-0.19656 0.41087,-0.21444 1.04523,-0.18785 0.61802,0.0259 0.7446,0.0598 1.06816,0.28607 0.91514,0.63996 1.5402,2.2538 1.5402,3.97665 0,1.4192 -0.33619,2.47535 -1.04385,3.27929 -0.57931,0.65814 -1.58868,0.95379 -2.38574,0.69879 z m 1.28938,-1.16491 c 0.53371,-0.35966 0.92473,-1.46776 0.92473,-2.62055 0,-0.94091 -0.56236,-2.95206 -0.93828,-3.35557 -0.12338,-0.13243 -0.26975,-0.18138 -0.54238,-0.18138 -0.3225,0 -0.40151,0.0375 -0.5797,0.27517 -0.57358,0.76504 -0.84286,1.69148 -0.84286,2.89983 0,1.27335 0.41439,2.5979 0.9428,3.01355 0.27481,0.21616 0.68721,0.20379 1.03569,-0.031 z m 16.81104,-1.24942 c -0.71526,-0.21427 -1.33178,-0.96233 -1.71507,-2.08094 -0.32744,-0.95563 -0.38107,-2.41192 -0.12618,-3.42631 0.36029,-1.43381 1.06323,-2.39495 1.90695,-2.6074 0.63058,-0.15879 0.64265,-0.1519 0.64265,0.36628 v 0.4617 l -0.36262,0.16041 c -0.81502,0.36052 -1.12461,1.10984 -1.1089,2.68385 0.0113,1.13302 0.22939,2.05452 0.71284,3.01223 0.2069,0.40987 0.30382,0.51629 0.50722,0.55698 0.24141,0.0483 0.25146,0.0685 0.25146,0.50537 0,0.44177 -0.007,0.45487 -0.23283,0.44781 -0.12806,-0.004 -0.34204,-0.04 -0.47552,-0.08 z m -9.37671,-7.72907 c -0.47223,-0.17671 -0.79359,-0.44097 -1.08112,-0.88906 -0.57386,-0.89426 -0.8108,-2.03315 -0.7527,-3.61788 0.0697,-1.90224 0.40814,-2.72131 1.40448,-3.39951 0.4993,-0.33987 0.57227,-0.36389 1.10521,-0.36389 1.27065,0 2.10406,0.84986 2.56104,2.61162 0.23147,0.89238 0.22987,2.27249 -0.004,3.17319 -0.29346,1.13167 -0.79885,1.89465 -1.51216,2.28288 -0.51558,0.28062 -1.27405,0.36992 -1.72106,0.20265 z m 1.43026,-1.49701 c 0.54942,-0.91987 0.76786,-2.13134 0.61065,-3.38667 -0.10742,-0.85772 -0.43957,-2.04002 -0.61356,-2.18392 -0.0579,-0.0479 -0.30428,-0.12316 -0.5475,-0.16727 -0.53668,-0.0973 -0.57402,-0.0658 -0.98512,0.83117 -0.71696,1.56436 -0.74961,3.26537 -0.0889,4.6295 0.28528,0.58897 0.56167,0.80056 1.00329,0.76808 0.3163,-0.0233 0.36458,-0.0614 0.62109,-0.49089 z m -111.496906,1.07368 c -0.47224,-0.17671 -0.79359,-0.44097 -1.08113,-0.88906 -0.57385,-0.89426 -0.81079,-2.03315 -0.75269,-3.61788 0.0697,-1.90224 0.40813,-2.72131 1.40448,-3.39951 0.4993,-0.33987 0.57226,-0.3639 1.10521,-0.3639 1.27065,0 2.10405,0.84986 2.56103,2.61162 0.23148,0.89239 0.22988,2.27249 -0.004,3.17319 -0.29345,1.13168 -0.79884,1.89466 -1.51215,2.28289 -0.51557,0.28061 -1.27404,0.36992 -1.72106,0.20265 z m 1.43026,-1.49701 c 0.54941,-0.91987 0.76785,-2.13134 0.61065,-3.38667 -0.10742,-0.85772 -0.43958,-2.04002 -0.61357,-2.18393 -0.0579,-0.0479 -0.30427,-0.12316 -0.54749,-0.16726 -0.53669,-0.0973 -0.57403,-0.0658 -0.98513,0.83117 -0.71695,1.56436 -0.7496,3.26537 -0.0888,4.62949 0.28529,0.58898 0.56168,0.80057 1.0033,0.76809 0.31629,-0.0233 0.36458,-0.0614 0.62109,-0.49089 z m 99.912676,-0.63626 c -0.52093,-0.16665 -1.17686,-0.87579 -1.42832,-1.54419 -0.32889,-0.87421 -0.44684,-1.73915 -0.3954,-2.89955 0.0836,-1.88562 0.55529,-2.94989 1.59972,-3.60921 0.31137,-0.19656 0.41087,-0.21444 1.04523,-0.18785 0.61802,0.0259 0.7446,0.0598 1.06816,0.28607 0.91514,0.63996 1.5402,2.2538 1.5402,3.97665 0,1.4192 -0.33619,2.47535 -1.04385,3.27929 -0.57931,0.65814 -1.58868,0.95379 -2.38574,0.69879 z m 1.28938,-1.16491 c 0.53371,-0.35966 0.92473,-1.46776 0.92473,-2.62055 0,-0.94091 -0.56236,-2.95206 -0.93828,-3.35557 -0.12338,-0.13243 -0.26975,-0.18138 -0.54238,-0.18138 -0.3225,0 -0.40151,0.0375 -0.5797,0.27517 -0.57358,0.76504 -0.84286,1.69148 -0.84286,2.89983 0,1.27335 0.41439,2.5979 0.9428,3.01355 0.27481,0.21616 0.68721,0.20379 1.03569,-0.031 z m 15.79036,-1.3417 c -0.43002,-0.10084 -0.55697,-0.2128 -0.55697,-0.49123 0,-0.37442 0.13331,-0.4299 1.03294,-0.4299 h 0.82973 v -2.99763 -2.99763 l -0.47285,0.12348 c -0.57517,0.1502 -1.12955,0.12218 -1.24549,-0.063 -0.11398,-0.18199 -0.0116,-0.55224 0.17245,-0.62388 0.0819,-0.0319 0.55847,-0.16375 1.05906,-0.29308 l 0.91016,-0.23513 v 3.9992 3.9992 l -0.1905,0.0511 c -0.2735,0.0733 -1.14976,0.0497 -1.53853,-0.0415 z M 48.021634,40.543325 c -0.6579,-0.10925 -0.89339,-0.24255 -0.92575,-0.52403 -0.0479,-0.41631 0.0883,-0.48109 1.01132,-0.48109 h 0.8363 v -2.99763 -2.99763 l -0.47286,0.12348 c -0.57517,0.1502 -1.12954,0.12218 -1.24549,-0.063 -0.18497,-0.29533 -0.005,-0.5421 0.56537,-0.77646 0.59672,-0.24505 1.49874,-0.43018 1.88248,-0.38636 l 0.24416,0.0279 0.0423,3.51366 0.0423,3.51367 0.79976,0.0246 c 0.43986,0.0135 0.84943,0.0658 0.91016,0.1162 0.14651,0.12159 0.14092,0.53631 -0.009,0.68647 -0.0782,0.0782 -0.49659,0.15388 -1.2065,0.21832 -1.22605,0.11131 -1.81281,0.11176 -2.47437,0.002 z m 54.071356,-4.22923 c -0.21099,-0.12289 -0.20033,-0.63668 0.0156,-0.75224 0.0901,-0.0482 0.50917,-0.0876 0.93133,-0.0876 h 0.76757 v -3.00357 -3.00357 l -0.21579,0.082 c -0.37749,0.14352 -1.17054,0.23621 -1.37051,0.16018 -0.21763,-0.0827 -0.26502,-0.46095 -0.0859,-0.68517 0.10579,-0.1324 1.3926,-0.51798 2.07726,-0.62244 0.64127,-0.0978 0.61091,-0.27779 0.61091,3.62075 v 3.47014 l 0.22598,-0.0567 c 0.12429,-0.0312 0.47216,-0.0304 0.77304,0.002 0.78472,0.084 1.07496,0.41784 0.69431,0.7985 -0.16017,0.16017 -0.28037,0.16919 -2.2225,0.16676 -1.23641,-0.002 -2.11211,-0.0369 -2.20133,-0.0889 z m 46.83934,-3.21526 c -0.96713,-0.086 -1.01351,-0.11079 -1.01351,-0.54146 0,-0.44287 0.0578,-0.46702 1.12183,-0.46868 l 0.74083,-0.001 v -2.97321 -2.97321 l -0.1905,0.0524 c -0.10477,0.0288 -0.44675,0.0958 -0.75995,0.14894 -0.44896,0.0761 -0.59675,0.0739 -0.6985,-0.0106 -0.15576,-0.12928 -0.17024,-0.54043 -0.0232,-0.65894 0.0582,-0.0469 0.61508,-0.22957 1.23751,-0.40589 0.83611,-0.23686 1.1678,-0.29788 1.27,-0.23363 0.19786,0.1244 0.27822,1.62169 0.24774,4.61542 l -0.0247,2.42966 0.34385,-0.0471 c 0.18913,-0.0259 0.56073,-0.002 0.82577,0.0529 0.56975,0.11827 0.72247,0.30295 0.56496,0.6832 -0.0873,0.21072 -0.15514,0.24684 -0.53625,0.28542 -0.7822,0.0792 -2.45381,0.10391 -3.10582,0.0459 z M 38.865684,32.675505 c -0.96714,-0.086 -1.01352,-0.11079 -1.01352,-0.54146 0,-0.44287 0.0578,-0.46702 1.12184,-0.46868 l 0.74083,-0.001 v -2.9732 -2.97321 l -0.1905,0.0524 c -0.10477,0.0288 -0.44675,0.0959 -0.75995,0.14894 -0.44896,0.0761 -0.59675,0.0739 -0.6985,-0.0106 -0.15576,-0.12927 -0.17025,-0.54043 -0.0232,-0.65894 0.0582,-0.0469 0.61509,-0.22956 1.23751,-0.40589 0.83612,-0.23686 1.16781,-0.29787 1.27,-0.23362 0.19786,0.1244 0.27823,1.62169 0.24774,4.61542 l -0.0247,2.42966 0.34386,-0.0472 c 0.18912,-0.0259 0.56072,-0.002 0.82576,0.0529 0.56975,0.11828 0.72247,0.30296 0.56497,0.68321 -0.0873,0.21071 -0.15515,0.24683 -0.53626,0.28542 -0.78219,0.0792 -2.45381,0.10391 -3.10582,0.0459 z m 45.56261,-1.44551 c -0.6579,-0.10926 -0.89339,-0.24255 -0.92575,-0.52403 -0.0479,-0.41631 0.0883,-0.48109 1.01132,-0.48109 h 0.8363 v -2.99763 -2.99763 l -0.47286,0.12348 c -0.57517,0.1502 -1.12954,0.12218 -1.24549,-0.063 -0.18497,-0.29533 -0.005,-0.54211 0.56537,-0.77646 0.59672,-0.24505 1.49874,-0.43018 1.88248,-0.38636 l 0.24417,0.0279 0.0423,3.51367 0.0423,3.51367 0.79975,0.0246 c 0.43986,0.0135 0.84943,0.0658 0.91016,0.1162 0.14651,0.12159 0.14092,0.5363 -0.009,0.68647 -0.0782,0.0782 -0.49659,0.15387 -1.2065,0.21832 -1.22604,0.1113 -1.8128,0.11175 -2.47437,0.002 z m 54.918026,-0.84257 c -0.21099,-0.12289 -0.20033,-0.63667 0.0156,-0.75224 0.0901,-0.0482 0.50917,-0.0876 0.93134,-0.0876 h 0.76756 v -3.00357 -3.00358 l -0.21579,0.0821 c -0.37749,0.14352 -1.17053,0.2362 -1.37051,0.16017 -0.21763,-0.0827 -0.26502,-0.46094 -0.0859,-0.68516 0.10579,-0.1324 1.3926,-0.51799 2.07726,-0.62244 0.64127,-0.0978 0.61091,-0.2778 0.61091,3.62074 v 3.47014 l 0.22598,-0.0567 c 0.12429,-0.0312 0.47216,-0.0304 0.77304,0.002 0.78472,0.084 1.07496,0.41784 0.69431,0.79849 -0.16017,0.16018 -0.28036,0.16919 -2.2225,0.16676 -1.2364,-0.002 -2.11211,-0.0369 -2.20133,-0.0889 z m -26.82065,-0.25192 c -0.96713,-0.086 -1.01351,-0.11079 -1.01351,-0.54146 0,-0.44287 0.0578,-0.46702 1.12183,-0.46868 l 0.74083,-10e-4 v -2.9732 -2.97321 l -0.1905,0.0524 c -0.10477,0.0288 -0.44675,0.0959 -0.75995,0.14894 -0.44896,0.0761 -0.59675,0.0739 -0.6985,-0.0106 -0.15576,-0.12927 -0.17025,-0.54043 -0.0232,-0.65894 0.0582,-0.0469 0.61509,-0.22956 1.23752,-0.40589 0.8361,-0.23686 1.1678,-0.29787 1.27,-0.23362 0.19785,0.1244 0.27822,1.62169 0.24773,4.61542 l -0.0247,2.42966 0.34386,-0.0471 c 0.18913,-0.0259 0.56072,-0.002 0.82576,0.0529 0.56976,0.11828 0.72247,0.30296 0.56496,0.68321 -0.0873,0.21071 -0.15514,0.24683 -0.53625,0.28542 -0.78219,0.0792 -2.45381,0.10391 -3.10582,0.0459 z M 59.946164,100.51938 c 0.25594,-0.552575 0.35977,-0.956655 0.42965,-1.672175 0.13625,-1.39487 -0.19176,-2.63304 -0.90878,-3.43054 -0.49275,-0.54805 -0.65838,-0.54725 -1.15547,0.006 -0.99117,1.10241 -1.13617,3.24485 -0.3507,5.181735 0.052,0.12818 0.18269,0.14817 0.96877,0.14817 h 0.90869 l 0.10784,-0.23284 z m 25.404,0.028 c 0,-0.0971 -0.0608,-0.1043 -0.3175,-0.0374 -0.50352,0.13137 -0.51048,0.14377 -0.0847,0.15085 0.29402,0.005 0.40217,-0.0256 0.40217,-0.1135 z m 11.43,0.0397 c 0,-0.26181 -0.21904,-1.034725 -0.38872,-1.371655 -0.28416,-0.56423 -0.55374,-0.74919 -1.092,-0.74919 -0.49213,0 -0.7578,0.1762 -1.01471,0.673 -0.11578,0.22389 -0.37617,1.223025 -0.38177,1.464845 -8.4e-4,0.0349 0.64623,0.0635 1.43786,0.0635 0.85344,0 1.43934,-0.0328 1.43934,-0.0805 z m -1.10655,-72.179465 c 0.59424,-0.3073 0.99428,-1.16254 1.1103,-2.37371 0.0891,-0.92963 -0.008,-1.70323 -0.30903,-2.45432 -0.26404,-0.65954 -0.88544,-1.39801 -1.17639,-1.39801 -0.27699,0 -0.92464,0.74816 -1.13549,1.31169 -0.50191,1.34148 -0.33616,3.40615 0.36227,4.51254 0.33816,0.53567 0.66699,0.65073 1.14834,0.40181 z m -36.43328,-3.42469 c 0.71726,-0.32572 1.05041,-1.08178 1.11312,-2.52619 l 0.0413,-0.9525 h -1.45993 -1.45994 l 0.0613,0.65617 c 0.10756,1.15082 0.51283,2.4381 0.88464,2.8099 0.21412,0.21412 0.37041,0.21653 0.81942,0.0126 z m 73.581136,-2.46807 c 0.29345,-0.11088 0.67843,-0.46702 0.84075,-0.77778 l 0.12162,-0.23284 h -1.1469 -1.14689 l 0.17857,0.35004 c 0.34966,0.68539 0.64273,0.85332 1.15285,0.66058 z"
       id="path5334"
       inkscape:connector-curvature="0" />
  </g>
</svg>
